<mxfile host="65bd71144e">
    <diagram id="WV88n-X-oyvsEQHgnmyw" name="Page-1">
        <mxGraphModel dx="2551" dy="1061" grid="1" gridSize="10" guides="1" tooltips="1" connect="1" arrows="1" fold="1" page="1" pageScale="1" pageWidth="827" pageHeight="1169" math="0" shadow="0">
            <root>
                <mxCell id="0"/>
                <mxCell id="1" parent="0"/>
                <mxCell id="40" value="" style="shape=image;verticalLabelPosition=bottom;labelBackgroundColor=default;verticalAlign=top;aspect=fixed;imageAspect=0;image=data:image/png,iVBORw0KGgoAAAANSUhEUgAAAMwAAADACAMAAAB/Pny7AAAAhFBMVEUvL3L///8tLXEpKW8mJm4VFWgrK3AkJG37+/yOjq4iImwAAGMfH2vz8/YxMXMAAGEbG2qkpLzk5OsNDWYAAFwREWfc3OXr6/A9PXrU1N85OXi+vs/JydeTk7C2tslra5WFhaZjY5CursNPT4RCQnxbW4t+fqJ1dZubm7UHB2VJSYEAAFaZp504AAAW50lEQVR4nN1diZayurKWJAxCiIAKIiACAup+//e7CShjGAR673VurbPO2u3fLflIzVWp7IT/R7T7rxewJf2HYHRd2fgbtwGjO7ZLybb0Ob+t6LZ/i80geMbxzbedzTBtAEb3zH0eJZTS8P68uWOLUxzbi4MsfcjH1/l8fInwkmbBzd0Gz2ow+jO8yIahygjJKjZUkoTZ3vRc22n/mmX78XOfhekD0t+SwI4w2gGIDEzS3LTXLkRYDUaJU4gh2FUEAFKxurs86D5FYZ5RuudhmKbJ+0EgxqosNX77QxLCu3fu/8dgrBzK/bVRSBKEdKPobjGSkUz/C0Leb1Z/gWQYrYWzCoybiGML/JGAfEzc/wyMezXIuvXT7aM7Ju2+X6OecnuFLlgBxn4bazcjidIkeRBsoHKHye4oxc70ozcH46TntVjI3bcs14/3eaIaoNweqOWLeW05mOy1kseolOzSfexSQ6u7cb4TP5+Kj9tCVlsMJn6thcLQyCJO8sCjeBw/01DxeogMg2WsthSMe4UbgGFSggz1ET0t5klcP4wLUW79i2CUCG+CpSAAZel615nZ0j6fqOkSNAvBPNGGBoYRxGJMN2d//nwvfi9AswyM+5a3xUIJnCJHUAIkFT8R4/K73CwCo99XWxgeGQ9fUe4f/4gYZFY8sRqMR6akn/rDzLyrKi5IpW4aBMxLHv0jTG6Cnn+lUUx/RbMEjBOOuTF0xVQAjpp8SVLqOJdELf1FPR5FjMAIIoIfnmB99SQx7j/amyVgPHFwNdT7FV/HCwvSPN+1betDtu363s28h2/xdVbhbgAQUR++cDt8fpJA/Odg9Ahz10IINDT1vb+x8Jn7ThUWXt+eKTic0QAe/LCFauPR+7egYAGY25H/Vo0DzG+WM5mmUBzLD96HF+QyHH44jvHV+zj/SaUtAHNF/SUA+XDK/fnpFkWxA+NkSPy9eX/1i4Rvfwvmfug+nlpwlHidxTKigT8jq/yp9012tqNRdG+H4aH6jKjJL7mBn8HY/7SZgwAVJPv6kUwufJaAuWqnf04l/XM6kzSnwtRlQj2Orirsclvz52P8g0b7FYyStG2/ZIDQ/DI2SySZ+Rtp2tlgKosKRfE/loRRDVE7oHdueq1EmeJlD7EHpyb0i1vzIxglaNp+AjAK449p0xmQi3E0mCnhyDb7UELGUbzmT89t2EP//jAGjTA5ePyVbADGI00eV3F4K3dFcW/3VHxhOGYTPy8A4qOR3OM68Ud3BxgDjivB0Xw++w2MmzQ0mXR+xyUPOBQJEOXdFJBqj3ayKCVZXHGQ44XnIV7T5mvnn8BYoVq/QHwOrOKl2fv0qiLpxyAayCppKA49Rny/ghzma+dfwDhZIyI7vEs+sSMIESdLOYMkhHbRN3uhOOGJZ3aIEf4FGH1fhf0AHYPiMzfVFiIpv0eSD3Xi7ybzwldJ+gMwem0tYWnLFDfUVkfPRD2lX13ghCpHrZ1mK+fZYPTs8JUKRFjArrj3szHk/v6CBuBj9oGjPy+9eJy8zK3BWHmFRX0z02KZu+MGUIrl7sTrs1QFipeq3X9Wo43BuFGla8TUZQ+NXtvkmko4yEg/fosbdp1yCcyNOGeBUbzkKxtEYykte0/4Mc1ywiArNYHV82Tx3KhmDhg9uFYO2YGKi3JLeYK6jogkJuXm6EEHjbzfDozdWPrhSbHs4faJJgYHgayw9op5amkBlGwGZi9WLox0eCqC/hZ5xm0LAkYZviim1tx5eJkZ1EyAUXxVq79UjamP+4+6sbQ0iKhiyWoeaKKRnhuA0d288YokaApKrG2kjwfQSFpQ6K64iUbN53nOI2AUd48anrkEA0Xfc8P2TUkrkhjKE9VPQjNrncNg3OBybO61sVeop7m5FuvTKyx8paD2lIA0zwkYAmM9kxYUcs51K1c3zv1ziRjMLFNfUKsYembKiQ9GiVO1JecEP3Qnwn/OYwUBNWV7o6eV1wEvs+wmF4wbgU6vAsSO/vgT68JFIxdoLFK9UDGY49JwwCgB6mWzTr7w+JMyxgAanDC/3z1/1wGvc1RAH4x/OfQkQ3sqj7UNDD8RERMmJbdvdZ689jO2pgtG35/62VecW6NVjJkkQaSqsqyqaIZOPEZOUdX6vFhgzNiaNhiFhsH970Vvf782omRVZfJOwzzPwyi5IDxUBqj+4JAphV/4+dGIpremBUa/PTievQSe5mSpbIowS5X5ls4y0I7rmVkiTrwfcmLGxatK9K9pn6YJRn8SToJ/p4Zxwvt8PhEoRnG720934/A1rh4l2WeM9n00ECfVcwOMfoe8RJz0CNYW/fHV5CQlrFsyWIIrCDEf2vq+SCJfpjIbNRglH4i4orWGH799vqNo56O9REDNqJzc8OfpBIcTfkANJjtzlwxIClZiSQbfqBWex9SAxGIOoao7AJyNe88VmG6sWqNZkeRjhC4jashNRuUGPaicWJXdA+dxNF8w3umPbCI4jnJ60MsstUhkHua+2j6KZkxBf8A4GzUp9YhoLY3KCoNWs9hk7kb3HeCbIjhSvTjxPiI3HzD38Re0nNClsXL7dk+u5BE+/WpFzwmlrzKBM2tLDrRseKdLMP7lr4KuV12QoHHFUZShhPCRZJ8ilRVNvUXqFgrOo4ZMXuGgY1OCuW/dcfUl9Ki54q7irwsDRZKzUpNzH212ZgSwxbI1DYkW0yHrWYCx03UWfpDIuXZ2gzNorAhikmZZCibDPSJmrFG3scCiw2YYTDz5fhYSMKrH+rCzbkmmHvSM5wKNbs2zZY/kK7+axsDod/GP9HIjfZcvVTHF1nSEGu24aBgYe0QKwSppkqtWS/29mJOBaPXa9aDGa3ZgYPz3oC6TpGgNGKPKqriP5fpSvlMPjbTXAV4cNAyMh4bEEOC9vkI5ELGSf/+yPLMDqbvc0+HSud+MxsDcBn1XkXoP6fKkDKmTKjFZUcYFZt+sEyT35KYAo/Hlv+gpcjhx9GyqwTzXuN5qqAte164ThLr2ZgwMMChfmoflmq7BZsEaFwNS57nP7kR+uDwwA0th4rvGA22A2a/RikANuN+gRlYfDD96hVdq8fzxyHacWmBWfM+OxZhen1GB0Y5vCtV85WoazDpxozWL2GpnqD7zBJ2j3IHx7IJxuQqLMargr1BCG+4MOZt8HwJd/Q4YJ+dlXxArV61zp7cDg3NLMDkcT4zQaoNpt/d9COw8ludZlfnfjM0on7mCxW1Bfj2VFhjhxhEa+FaYqVtVkdlsZ2iMRl8t18eWsNsGY3OEBlNtqNzXZf+2A0OOdAO4ok2MqA2G+gr9KoY17k7PWsJ2YJhyNo9c+63d2mD6OQB4EVjWel3dbzuZoUbPEnx+ag9JbTBCdwvoMuin5spi2YYyw+oz+j/cnSFVfeADxu96cQd/gwNMG4LZsb5Tjb+7AOotMEI30c8acKfzQGzBUFXVgZXOYDMCZFWVp/0/cgwUIeGvByCzDcZu86NEFHZMbvIhRD6+ozBKMOatdXpnJAOmURRdxKmNoxpAEbKBWqScKi0wQt5Kaqgp471JKwOM5OlbjuXGIa9HYAoMQVIWu5Zle8F7qmwiJ7oQDNQMpKvXBmM1j/YTI2PKbOoB1Gv9WizH5KCZAiNfzM+/K2448TB4dQYDryJLILTqM42tIWdmMuMp91/M6nylcusrzgmZgZfGiWyr32naIkkd1M0UTBnY1GCaUkO0mIEZDzIJbsVGyr3nO03sDAoafy7YE1uj2YJ9Gvg3FiK0wOh5LV6EWVVlwOJ+Sdq18yOO2mW0cTDw3a617EeraLsTBTN00h2oZhuM4NdJmgKMPiRvH5I7h6mVZxf8OJvhTi1cP41uDbV81lAaiYhFEaoBpmFW5oHJ2osR/G4uYXxnxG5popuNbn8XXZI1mOArswENMMqzMvhFy/oEGAC7Hbpul8/GwZy7NbBwrFeaHXEaBlP2CjabGmp3k4h3JjOjgyU4YHoBR50344A59sGMPI7ppGEwUhE+N8FY9bfhiGmz8SkZqMdmPfkUza/u5ciM2G3wHc1qMWYZBrNTvQ4YoeYz9KY/xuOVjp4C6O9kE0zv73Gn8VIfsiIlGG2MzYB464Kp4xcgU/7wuA5XRRJpJ3v1S2/Bo2Bg2s7jj3N1oQAGc7wcMHX4TA7WtG/Waf949hczymagfahc340+rVAAg9OUOGCU/MtnRDNn1FRe94bZ8zjmeXRndqjZRqpEE4kgZjQHk/gcMI1+CRzOqmtn1me1etxvhpwCQ1Tydc4UK5oIBMnB7sYpDZJATwE0ck4SmhVpnpPYthzH8sMjjwPGwdBoSL377M9dc7KdFVDlN+hoUteoq5qplNSMdXSbVnSQ5Nc1ysO3wTcRozJTLhEneR6RyeCMCtRICEA9ALsHxqpb/lRqNuN5YTPGQ6mXiZ1hfw4QxnOOFiHqlgZDni+Nv/QemEZFBz6UzknmQRrWqNNgxv++QTjSheESf+m0dlqBw+qZLNfsruzNnGaz2UQdLEUYjN+kssuhAyavN1zO56Vnxmjezsyhwo8fNOKf0U4dMFn9TPh2dW6t4wfaDszuTNXVP0P/+Dli1wHTeCaQA2G/sg9lOzBwZwnucNTs88HUO0n37rnhzqyTGTV1hHhIM6sf/314Z6jvFOQbKoBVX0TONDIaCt6kq8UFkzWfCYbSrrNpOzBM/ncD5kj7OqxdbbZtF91mbCYRV3C4HhON2qqzgoN2ZhPabGdwaAkeNzdDjmkViPyPgGFVQG5NkmKp493/DTASoR5+yhEZoKWd0vm/A2aNzLC0mMuJmaHaDA+7YFZ1l/Rpq51hjUBmvysWXds5kc4xrY17gjcCU+TF+0xjXDrtc10w257F3IjNWPNct4zHJlV025v/F3amONr8bJ98IeKlPxb9j8FUyaT9ii1nDacdBx68Is5pqT9VAABXjLDmGAi+t7ITO1bX5Z7V+FPVjN7VJKYVkRFr0lZa/jsw9twTTl0wy7mhbwY+JSBGzvKYlYh5p1UJ4DsPyrjX/BMhKHWPd8O6Y3+kqX2KJNaSFDdGRhCc87F0wdyXgpGjIAgfzZwRAWpQMQPH4s0kcr6ziVQNLkOdWuggmGDZQ0lRRNe97GLA770SGO8rd7Y1Ge03gpBujNfMRg6fpO2AMZf1ZMHPTEXd318OZ9EwxKMYxfUL9Jcfa2AZfL1x5p2cuzWuQTCc5uEZ1Khd6u7tuc/Z1SAN3anvl7ZHEYNFK16jwwCowxN1OmCsRU2ZpDUVQtedzj05vVNNswkgZqmSOvgnR75W5oHRH4seq0Zjp4719+IhQsUhU69ZlukV3IfBCFMlHz6Nju5U0sVTHuSiIl7pSGnisHYXDK/FeQaB1+AtC0rKH4k8gyTIfLv7tx0BXuhWjc2i7YLxB0sgE889mFztr9jv8T6PEQIqO41gfwdPiLl1QWRswkEXjMI9SD/rBGLu9uAotkmWO2XF9Bn962HJRLdFeXTkcW9US85h8Mt1DhqD7P0WQzt+Z0bSbyQBtgvVSe6zJwTH8TlHPTCc7LSUpLOsDzQexQRjR3eKmc3hw1gRxZATE5iqRHSmLHdFxuj4mR4Y5dFzzwDZzwynIYaXJIrCKEofRF01coscmGvsZJ+WOvSwBeu0M0bHafUnAnHaE1HizR3UBCQks3O+aLGd/NArZINHK2+Z5Zr3Z4BGp+r2wTicezLEu31eubjfiJyLpKv7GWtARHZMBkuf9sX5YKgn1JeQk2evEOXfqRwiYl0+rgNkHVjekaB0dNQhB4ye9Q0n0Bwf/YsjwQoNrEffVLnKHLIU0bBsdMYRb74Z50IWol517/JXsym6pBaj54T7t3sXsYSyL4GdOD4elAdGufXvMaD2V/feG14HNEzEKOcZVp3IEvRYSkSenA3InTynmFJfQKiK95N/A8253JfbN6VAoyWlnEAFJ+7W4M8E1J/9zi4JPRU3/XM0RCtbv7365hZ2D40Tqoz9xseCDUxrZONfu24N3MWCFf3VUIcvncqWfO/bVkggZuBiarf6La7zwNBdPvUiKoipg5EPFeM3Icgm9QrsUO9XauGJMZ3Njs4UJadFYAQn6Q3MhcwOP8W/mutCff6Ph+/hrz6FRS7GyVg/E0wmhs+NjWt9XruNyhK7p8NPtp/WXC5cjsqhwN7rO2gNQea/KOVIIBwML3YKDN3sEHSOToCTqQhWRubMWPmV8LVMiyhxhUUtD6X4xcRbYEyNOR0fcazHkdGxlKfAoR+nxq83NEwQQUZUSoTzrA44qO/iI5cGZkyrDWVlZ4JhQ+aTl9y8I4NaT5sNOUfbztUUL0GZaLOzb8qAfOYYuZ+pi4fJ+wGmJ2nbcXJoNnoBzJ6h++lpM8kh6jH/1I786PMsAk5lDcYts2bkPLkxc2acK5YXHhvXGQD5wqp7VkyOm/AaQa/ke/OLefmqMUMs07veu+RzCU9f3DBrlH4xUrvhSkO5yF5ZgcpvZ/kJyk6TvlcLOfnnxCaBh9LZV+KvwdHMkRzTT2DYysND43gMhoVoOntx+FKfWQRFrTrQ74EPi0FxV6bh9Ez8oMPpjInNs8EwOLA+JSGdwoIL9OAK54yS5SORpUcFRQ9LIZQQvJSFHcUnx+o3l00FHiEvAnVsIMLbZ4p/+IC/m1EiqegRVvlJ/VZcpkMkvEuf5ffaeTXTV4IzmOxHMIJuJvVRLiiGXmnl/CC8nLH0w1x6ST1fo6Cqfn+vOQJYisrMqO4GoB7SKN8nHJklYKiizF71TFe8u3/W43jP/Coa8jQgQgAyziQK6gKO4mW7QloASstbmx1v/xArVQlwOK3JloARHHNX6zUoPu7feMnx43sivUQsEf5NVEVxUDU0Ocliv14dhXL9uLSo8M3oiwmJ2OBbcSaW38FQpkrqlnzKa+/Mqxjfcm/7iBwOR1GVPoCq/0fGUTsgBsRuKCbdyy/VwtXccuN99MC4EUyRw2jxZx0YNlqjUf0hUL5GjXoGS816z3sKi8v0DoyKG/Vej/wZd+/T08302hgGAMj7QVBLmZDdaTwjsxYMCy+axlKSVXRvcUJ5s6Hjur5HyXdtnXfVoZ3jzkWHAMLOpFuDOy9vSzCCsu+cLwXiP4/Y4tzMOPQFuh3A0/gBPWZy5op+ScvAsC6lNhpCkHZOTXv6blAKxPL3D+3Ivxy0fj8Ik/S3W8+XghH2vWEBZKcetWsWuxTRMA7XN0OkiWPz2gk1kiqG7zyeLS0rwSgZ75gRoL7WMcmD+Oazm2hLUVEUXXcsKkA38x5dD0fKXUNISHG39hk+0sz87f7ZVWAEPeeezqe8g/D5jC5JGmb3/T6gtN/fszB9XzFV2XDw9mYCgExfxTu8mzff/vkG6lVgBHu4JE7NPEQqNkSjuIPaoISLis3IjiBRM5I93VFrCY61YAS/f/63t8Tef3F/TTI08b33rEFh+3swwuTEkFkknU84vw1c9fzvgaGx00oglBnP6n7eJUZ/DGZqePwUEhle02ArJMJaMII5flR8mGgUpr7D54ZIhNVg9GUdqlQHX8PnwD0Oy2klGMGXft4aIhk4DbyfbjGfR2vBCBNjg/pQoCZlnr31phS0GowQ/HDXA3XfTrvnIus+h9aDUfo3uQ8RMA6J5/zJphS0Hgx10uaNdJZEI//lTvnfaQMwrDl2Mm0mUZvy/Cv2+tIWYNj9SOPVJ6heUn6n4Ka0CRhB8FJj6K5yKvS4kcH5S9oIjGAH1yPsO8dkB0UxDfy/3xVGW4ERFP9ONJai/QCiMRiQ1LP2yG5/Y1Q4tBmY4ravSNJeBlaRTAOz40EkUbAsZFxIG4IpEki+mUfpO4nCLPBc6w9tCo82BVOQ8qXNv3mS/g+gC5wAC+YEPgAAAABJRU5ErkJggg==;" parent="1" vertex="1">
                    <mxGeometry x="670" y="537.5" width="31.88" height="30" as="geometry"/>
                </mxCell>
                <mxCell id="39" value="" style="shape=image;verticalLabelPosition=bottom;labelBackgroundColor=default;verticalAlign=top;aspect=fixed;imageAspect=0;image=data:image/png,iVBORw0KGgoAAAANSUhEUgAAAMwAAADACAMAAAB/Pny7AAAAhFBMVEUvL3L///8tLXEpKW8mJm4VFWgrK3AkJG37+/yOjq4iImwAAGMfH2vz8/YxMXMAAGEbG2qkpLzk5OsNDWYAAFwREWfc3OXr6/A9PXrU1N85OXi+vs/JydeTk7C2tslra5WFhaZjY5CursNPT4RCQnxbW4t+fqJ1dZubm7UHB2VJSYEAAFaZp504AAAW50lEQVR4nN1diZayurKWJAxCiIAKIiACAup+//e7CShjGAR673VurbPO2u3fLflIzVWp7IT/R7T7rxewJf2HYHRd2fgbtwGjO7ZLybb0Ob+t6LZ/i80geMbxzbedzTBtAEb3zH0eJZTS8P68uWOLUxzbi4MsfcjH1/l8fInwkmbBzd0Gz2ow+jO8yIahygjJKjZUkoTZ3vRc22n/mmX78XOfhekD0t+SwI4w2gGIDEzS3LTXLkRYDUaJU4gh2FUEAFKxurs86D5FYZ5RuudhmKbJ+0EgxqosNX77QxLCu3fu/8dgrBzK/bVRSBKEdKPobjGSkUz/C0Leb1Z/gWQYrYWzCoybiGML/JGAfEzc/wyMezXIuvXT7aM7Ju2+X6OecnuFLlgBxn4bazcjidIkeRBsoHKHye4oxc70ozcH46TntVjI3bcs14/3eaIaoNweqOWLeW05mOy1kseolOzSfexSQ6u7cb4TP5+Kj9tCVlsMJn6thcLQyCJO8sCjeBw/01DxeogMg2WsthSMe4UbgGFSggz1ET0t5klcP4wLUW79i2CUCG+CpSAAZel615nZ0j6fqOkSNAvBPNGGBoYRxGJMN2d//nwvfi9AswyM+5a3xUIJnCJHUAIkFT8R4/K73CwCo99XWxgeGQ9fUe4f/4gYZFY8sRqMR6akn/rDzLyrKi5IpW4aBMxLHv0jTG6Cnn+lUUx/RbMEjBOOuTF0xVQAjpp8SVLqOJdELf1FPR5FjMAIIoIfnmB99SQx7j/amyVgPHFwNdT7FV/HCwvSPN+1betDtu363s28h2/xdVbhbgAQUR++cDt8fpJA/Odg9Ahz10IINDT1vb+x8Jn7ThUWXt+eKTic0QAe/LCFauPR+7egYAGY25H/Vo0DzG+WM5mmUBzLD96HF+QyHH44jvHV+zj/SaUtAHNF/SUA+XDK/fnpFkWxA+NkSPy9eX/1i4Rvfwvmfug+nlpwlHidxTKigT8jq/yp9012tqNRdG+H4aH6jKjJL7mBn8HY/7SZgwAVJPv6kUwufJaAuWqnf04l/XM6kzSnwtRlQj2Orirsclvz52P8g0b7FYyStG2/ZIDQ/DI2SySZ+Rtp2tlgKosKRfE/loRRDVE7oHdueq1EmeJlD7EHpyb0i1vzIxglaNp+AjAK449p0xmQi3E0mCnhyDb7UELGUbzmT89t2EP//jAGjTA5ePyVbADGI00eV3F4K3dFcW/3VHxhOGYTPy8A4qOR3OM68Ud3BxgDjivB0Xw++w2MmzQ0mXR+xyUPOBQJEOXdFJBqj3ayKCVZXHGQ44XnIV7T5mvnn8BYoVq/QHwOrOKl2fv0qiLpxyAayCppKA49Rny/ghzma+dfwDhZIyI7vEs+sSMIESdLOYMkhHbRN3uhOOGJZ3aIEf4FGH1fhf0AHYPiMzfVFiIpv0eSD3Xi7ybzwldJ+gMwem0tYWnLFDfUVkfPRD2lX13ghCpHrZ1mK+fZYPTs8JUKRFjArrj3szHk/v6CBuBj9oGjPy+9eJy8zK3BWHmFRX0z02KZu+MGUIrl7sTrs1QFipeq3X9Wo43BuFGla8TUZQ+NXtvkmko4yEg/fosbdp1yCcyNOGeBUbzkKxtEYykte0/4Mc1ywiArNYHV82Tx3KhmDhg9uFYO2YGKi3JLeYK6jogkJuXm6EEHjbzfDozdWPrhSbHs4faJJgYHgayw9op5amkBlGwGZi9WLox0eCqC/hZ5xm0LAkYZviim1tx5eJkZ1EyAUXxVq79UjamP+4+6sbQ0iKhiyWoeaKKRnhuA0d288YokaApKrG2kjwfQSFpQ6K64iUbN53nOI2AUd48anrkEA0Xfc8P2TUkrkhjKE9VPQjNrncNg3OBybO61sVeop7m5FuvTKyx8paD2lIA0zwkYAmM9kxYUcs51K1c3zv1ziRjMLFNfUKsYembKiQ9GiVO1JecEP3Qnwn/OYwUBNWV7o6eV1wEvs+wmF4wbgU6vAsSO/vgT68JFIxdoLFK9UDGY49JwwCgB6mWzTr7w+JMyxgAanDC/3z1/1wGvc1RAH4x/OfQkQ3sqj7UNDD8RERMmJbdvdZ689jO2pgtG35/62VecW6NVjJkkQaSqsqyqaIZOPEZOUdX6vFhgzNiaNhiFhsH970Vvf782omRVZfJOwzzPwyi5IDxUBqj+4JAphV/4+dGIpremBUa/PTievQSe5mSpbIowS5X5ls4y0I7rmVkiTrwfcmLGxatK9K9pn6YJRn8SToJ/p4Zxwvt8PhEoRnG720934/A1rh4l2WeM9n00ECfVcwOMfoe8RJz0CNYW/fHV5CQlrFsyWIIrCDEf2vq+SCJfpjIbNRglH4i4orWGH799vqNo56O9REDNqJzc8OfpBIcTfkANJjtzlwxIClZiSQbfqBWex9SAxGIOoao7AJyNe88VmG6sWqNZkeRjhC4jashNRuUGPaicWJXdA+dxNF8w3umPbCI4jnJ60MsstUhkHua+2j6KZkxBf8A4GzUp9YhoLY3KCoNWs9hk7kb3HeCbIjhSvTjxPiI3HzD38Re0nNClsXL7dk+u5BE+/WpFzwmlrzKBM2tLDrRseKdLMP7lr4KuV12QoHHFUZShhPCRZJ8ilRVNvUXqFgrOo4ZMXuGgY1OCuW/dcfUl9Ki54q7irwsDRZKzUpNzH212ZgSwxbI1DYkW0yHrWYCx03UWfpDIuXZ2gzNorAhikmZZCibDPSJmrFG3scCiw2YYTDz5fhYSMKrH+rCzbkmmHvSM5wKNbs2zZY/kK7+axsDod/GP9HIjfZcvVTHF1nSEGu24aBgYe0QKwSppkqtWS/29mJOBaPXa9aDGa3ZgYPz3oC6TpGgNGKPKqriP5fpSvlMPjbTXAV4cNAyMh4bEEOC9vkI5ELGSf/+yPLMDqbvc0+HSud+MxsDcBn1XkXoP6fKkDKmTKjFZUcYFZt+sEyT35KYAo/Hlv+gpcjhx9GyqwTzXuN5qqAte164ThLr2ZgwMMChfmoflmq7BZsEaFwNS57nP7kR+uDwwA0th4rvGA22A2a/RikANuN+gRlYfDD96hVdq8fzxyHacWmBWfM+OxZhen1GB0Y5vCtV85WoazDpxozWL2GpnqD7zBJ2j3IHx7IJxuQqLMargr1BCG+4MOZt8HwJd/Q4YJ+dlXxArV61zp7cDg3NLMDkcT4zQaoNpt/d9COw8ludZlfnfjM0on7mCxW1Bfj2VFhjhxhEa+FaYqVtVkdlsZ2iMRl8t18eWsNsGY3OEBlNtqNzXZf+2A0OOdAO4ok2MqA2G+gr9KoY17k7PWsJ2YJhyNo9c+63d2mD6OQB4EVjWel3dbzuZoUbPEnx+ag9JbTBCdwvoMuin5spi2YYyw+oz+j/cnSFVfeADxu96cQd/gwNMG4LZsb5Tjb+7AOotMEI30c8acKfzQGzBUFXVgZXOYDMCZFWVp/0/cgwUIeGvByCzDcZu86NEFHZMbvIhRD6+ozBKMOatdXpnJAOmURRdxKmNoxpAEbKBWqScKi0wQt5Kaqgp471JKwOM5OlbjuXGIa9HYAoMQVIWu5Zle8F7qmwiJ7oQDNQMpKvXBmM1j/YTI2PKbOoB1Gv9WizH5KCZAiNfzM+/K2448TB4dQYDryJLILTqM42tIWdmMuMp91/M6nylcusrzgmZgZfGiWyr32naIkkd1M0UTBnY1GCaUkO0mIEZDzIJbsVGyr3nO03sDAoafy7YE1uj2YJ9Gvg3FiK0wOh5LV6EWVVlwOJ+Sdq18yOO2mW0cTDw3a617EeraLsTBTN00h2oZhuM4NdJmgKMPiRvH5I7h6mVZxf8OJvhTi1cP41uDbV81lAaiYhFEaoBpmFW5oHJ2osR/G4uYXxnxG5popuNbn8XXZI1mOArswENMMqzMvhFy/oEGAC7Hbpul8/GwZy7NbBwrFeaHXEaBlP2CjabGmp3k4h3JjOjgyU4YHoBR50344A59sGMPI7ppGEwUhE+N8FY9bfhiGmz8SkZqMdmPfkUza/u5ciM2G3wHc1qMWYZBrNTvQ4YoeYz9KY/xuOVjp4C6O9kE0zv73Gn8VIfsiIlGG2MzYB464Kp4xcgU/7wuA5XRRJpJ3v1S2/Bo2Bg2s7jj3N1oQAGc7wcMHX4TA7WtG/Waf949hczymagfahc340+rVAAg9OUOGCU/MtnRDNn1FRe94bZ8zjmeXRndqjZRqpEE4kgZjQHk/gcMI1+CRzOqmtn1me1etxvhpwCQ1Tydc4UK5oIBMnB7sYpDZJATwE0ck4SmhVpnpPYthzH8sMjjwPGwdBoSL377M9dc7KdFVDlN+hoUteoq5qplNSMdXSbVnSQ5Nc1ysO3wTcRozJTLhEneR6RyeCMCtRICEA9ALsHxqpb/lRqNuN5YTPGQ6mXiZ1hfw4QxnOOFiHqlgZDni+Nv/QemEZFBz6UzknmQRrWqNNgxv++QTjSheESf+m0dlqBw+qZLNfsruzNnGaz2UQdLEUYjN+kssuhAyavN1zO56Vnxmjezsyhwo8fNOKf0U4dMFn9TPh2dW6t4wfaDszuTNXVP0P/+Dli1wHTeCaQA2G/sg9lOzBwZwnucNTs88HUO0n37rnhzqyTGTV1hHhIM6sf/314Z6jvFOQbKoBVX0TONDIaCt6kq8UFkzWfCYbSrrNpOzBM/ncD5kj7OqxdbbZtF91mbCYRV3C4HhON2qqzgoN2ZhPabGdwaAkeNzdDjmkViPyPgGFVQG5NkmKp493/DTASoR5+yhEZoKWd0vm/A2aNzLC0mMuJmaHaDA+7YFZ1l/Rpq51hjUBmvysWXds5kc4xrY17gjcCU+TF+0xjXDrtc10w257F3IjNWPNct4zHJlV025v/F3amONr8bJ98IeKlPxb9j8FUyaT9ii1nDacdBx68Is5pqT9VAABXjLDmGAi+t7ITO1bX5Z7V+FPVjN7VJKYVkRFr0lZa/jsw9twTTl0wy7mhbwY+JSBGzvKYlYh5p1UJ4DsPyrjX/BMhKHWPd8O6Y3+kqX2KJNaSFDdGRhCc87F0wdyXgpGjIAgfzZwRAWpQMQPH4s0kcr6ziVQNLkOdWuggmGDZQ0lRRNe97GLA770SGO8rd7Y1Ge03gpBujNfMRg6fpO2AMZf1ZMHPTEXd318OZ9EwxKMYxfUL9Jcfa2AZfL1x5p2cuzWuQTCc5uEZ1Khd6u7tuc/Z1SAN3anvl7ZHEYNFK16jwwCowxN1OmCsRU2ZpDUVQtedzj05vVNNswkgZqmSOvgnR75W5oHRH4seq0Zjp4719+IhQsUhU69ZlukV3IfBCFMlHz6Nju5U0sVTHuSiIl7pSGnisHYXDK/FeQaB1+AtC0rKH4k8gyTIfLv7tx0BXuhWjc2i7YLxB0sgE889mFztr9jv8T6PEQIqO41gfwdPiLl1QWRswkEXjMI9SD/rBGLu9uAotkmWO2XF9Bn962HJRLdFeXTkcW9US85h8Mt1DhqD7P0WQzt+Z0bSbyQBtgvVSe6zJwTH8TlHPTCc7LSUpLOsDzQexQRjR3eKmc3hw1gRxZATE5iqRHSmLHdFxuj4mR4Y5dFzzwDZzwynIYaXJIrCKEofRF01coscmGvsZJ+WOvSwBeu0M0bHafUnAnHaE1HizR3UBCQks3O+aLGd/NArZINHK2+Z5Zr3Z4BGp+r2wTicezLEu31eubjfiJyLpKv7GWtARHZMBkuf9sX5YKgn1JeQk2evEOXfqRwiYl0+rgNkHVjekaB0dNQhB4ye9Q0n0Bwf/YsjwQoNrEffVLnKHLIU0bBsdMYRb74Z50IWol517/JXsym6pBaj54T7t3sXsYSyL4GdOD4elAdGufXvMaD2V/feG14HNEzEKOcZVp3IEvRYSkSenA3InTynmFJfQKiK95N/A8253JfbN6VAoyWlnEAFJ+7W4M8E1J/9zi4JPRU3/XM0RCtbv7365hZ2D40Tqoz9xseCDUxrZONfu24N3MWCFf3VUIcvncqWfO/bVkggZuBiarf6La7zwNBdPvUiKoipg5EPFeM3Icgm9QrsUO9XauGJMZ3Njs4UJadFYAQn6Q3MhcwOP8W/mutCff6Ph+/hrz6FRS7GyVg/E0wmhs+NjWt9XruNyhK7p8NPtp/WXC5cjsqhwN7rO2gNQea/KOVIIBwML3YKDN3sEHSOToCTqQhWRubMWPmV8LVMiyhxhUUtD6X4xcRbYEyNOR0fcazHkdGxlKfAoR+nxq83NEwQQUZUSoTzrA44qO/iI5cGZkyrDWVlZ4JhQ+aTl9y8I4NaT5sNOUfbztUUL0GZaLOzb8qAfOYYuZ+pi4fJ+wGmJ2nbcXJoNnoBzJ6h++lpM8kh6jH/1I786PMsAk5lDcYts2bkPLkxc2acK5YXHhvXGQD5wqp7VkyOm/AaQa/ke/OLefmqMUMs07veu+RzCU9f3DBrlH4xUrvhSkO5yF5ZgcpvZ/kJyk6TvlcLOfnnxCaBh9LZV+KvwdHMkRzTT2DYysND43gMhoVoOntx+FKfWQRFrTrQ74EPi0FxV6bh9Ez8oMPpjInNs8EwOLA+JSGdwoIL9OAK54yS5SORpUcFRQ9LIZQQvJSFHcUnx+o3l00FHiEvAnVsIMLbZ4p/+IC/m1EiqegRVvlJ/VZcpkMkvEuf5ffaeTXTV4IzmOxHMIJuJvVRLiiGXmnl/CC8nLH0w1x6ST1fo6Cqfn+vOQJYisrMqO4GoB7SKN8nHJklYKiizF71TFe8u3/W43jP/Coa8jQgQgAyziQK6gKO4mW7QloASstbmx1v/xArVQlwOK3JloARHHNX6zUoPu7feMnx43sivUQsEf5NVEVxUDU0Ocliv14dhXL9uLSo8M3oiwmJ2OBbcSaW38FQpkrqlnzKa+/Mqxjfcm/7iBwOR1GVPoCq/0fGUTsgBsRuKCbdyy/VwtXccuN99MC4EUyRw2jxZx0YNlqjUf0hUL5GjXoGS816z3sKi8v0DoyKG/Vej/wZd+/T08302hgGAMj7QVBLmZDdaTwjsxYMCy+axlKSVXRvcUJ5s6Hjur5HyXdtnXfVoZ3jzkWHAMLOpFuDOy9vSzCCsu+cLwXiP4/Y4tzMOPQFuh3A0/gBPWZy5op+ScvAsC6lNhpCkHZOTXv6blAKxPL3D+3Ivxy0fj8Ik/S3W8+XghH2vWEBZKcetWsWuxTRMA7XN0OkiWPz2gk1kiqG7zyeLS0rwSgZ75gRoL7WMcmD+Oazm2hLUVEUXXcsKkA38x5dD0fKXUNISHG39hk+0sz87f7ZVWAEPeeezqe8g/D5jC5JGmb3/T6gtN/fszB9XzFV2XDw9mYCgExfxTu8mzff/vkG6lVgBHu4JE7NPEQqNkSjuIPaoISLis3IjiBRM5I93VFrCY61YAS/f/63t8Tef3F/TTI08b33rEFh+3swwuTEkFkknU84vw1c9fzvgaGx00oglBnP6n7eJUZ/DGZqePwUEhle02ArJMJaMII5flR8mGgUpr7D54ZIhNVg9GUdqlQHX8PnwD0Oy2klGMGXft4aIhk4DbyfbjGfR2vBCBNjg/pQoCZlnr31phS0GowQ/HDXA3XfTrvnIus+h9aDUfo3uQ8RMA6J5/zJphS0Hgx10uaNdJZEI//lTvnfaQMwrDl2Mm0mUZvy/Cv2+tIWYNj9SOPVJ6heUn6n4Ka0CRhB8FJj6K5yKvS4kcH5S9oIjGAH1yPsO8dkB0UxDfy/3xVGW4ERFP9ONJai/QCiMRiQ1LP2yG5/Y1Q4tBmY4ravSNJeBlaRTAOz40EkUbAsZFxIG4IpEki+mUfpO4nCLPBc6w9tCo82BVOQ8qXNv3mS/g+gC5wAC+YEPgAAAABJRU5ErkJggg==;" parent="1" vertex="1">
                    <mxGeometry x="664.06" y="383.5" width="31.88" height="30" as="geometry"/>
                </mxCell>
                <mxCell id="36" value="" style="shape=image;verticalLabelPosition=bottom;labelBackgroundColor=default;verticalAlign=top;aspect=fixed;imageAspect=0;image=data:image/png,iVBORw0KGgoAAAANSUhEUgAAAMwAAADACAMAAAB/Pny7AAAAhFBMVEUvL3L///8tLXEpKW8mJm4VFWgrK3AkJG37+/yOjq4iImwAAGMfH2vz8/YxMXMAAGEbG2qkpLzk5OsNDWYAAFwREWfc3OXr6/A9PXrU1N85OXi+vs/JydeTk7C2tslra5WFhaZjY5CursNPT4RCQnxbW4t+fqJ1dZubm7UHB2VJSYEAAFaZp504AAAW50lEQVR4nN1diZayurKWJAxCiIAKIiACAup+//e7CShjGAR673VurbPO2u3fLflIzVWp7IT/R7T7rxewJf2HYHRd2fgbtwGjO7ZLybb0Ob+t6LZ/i80geMbxzbedzTBtAEb3zH0eJZTS8P68uWOLUxzbi4MsfcjH1/l8fInwkmbBzd0Gz2ow+jO8yIahygjJKjZUkoTZ3vRc22n/mmX78XOfhekD0t+SwI4w2gGIDEzS3LTXLkRYDUaJU4gh2FUEAFKxurs86D5FYZ5RuudhmKbJ+0EgxqosNX77QxLCu3fu/8dgrBzK/bVRSBKEdKPobjGSkUz/C0Leb1Z/gWQYrYWzCoybiGML/JGAfEzc/wyMezXIuvXT7aM7Ju2+X6OecnuFLlgBxn4bazcjidIkeRBsoHKHye4oxc70ozcH46TntVjI3bcs14/3eaIaoNweqOWLeW05mOy1kseolOzSfexSQ6u7cb4TP5+Kj9tCVlsMJn6thcLQyCJO8sCjeBw/01DxeogMg2WsthSMe4UbgGFSggz1ET0t5klcP4wLUW79i2CUCG+CpSAAZel615nZ0j6fqOkSNAvBPNGGBoYRxGJMN2d//nwvfi9AswyM+5a3xUIJnCJHUAIkFT8R4/K73CwCo99XWxgeGQ9fUe4f/4gYZFY8sRqMR6akn/rDzLyrKi5IpW4aBMxLHv0jTG6Cnn+lUUx/RbMEjBOOuTF0xVQAjpp8SVLqOJdELf1FPR5FjMAIIoIfnmB99SQx7j/amyVgPHFwNdT7FV/HCwvSPN+1betDtu363s28h2/xdVbhbgAQUR++cDt8fpJA/Odg9Ahz10IINDT1vb+x8Jn7ThUWXt+eKTic0QAe/LCFauPR+7egYAGY25H/Vo0DzG+WM5mmUBzLD96HF+QyHH44jvHV+zj/SaUtAHNF/SUA+XDK/fnpFkWxA+NkSPy9eX/1i4Rvfwvmfug+nlpwlHidxTKigT8jq/yp9012tqNRdG+H4aH6jKjJL7mBn8HY/7SZgwAVJPv6kUwufJaAuWqnf04l/XM6kzSnwtRlQj2Orirsclvz52P8g0b7FYyStG2/ZIDQ/DI2SySZ+Rtp2tlgKosKRfE/loRRDVE7oHdueq1EmeJlD7EHpyb0i1vzIxglaNp+AjAK449p0xmQi3E0mCnhyDb7UELGUbzmT89t2EP//jAGjTA5ePyVbADGI00eV3F4K3dFcW/3VHxhOGYTPy8A4qOR3OM68Ud3BxgDjivB0Xw++w2MmzQ0mXR+xyUPOBQJEOXdFJBqj3ayKCVZXHGQ44XnIV7T5mvnn8BYoVq/QHwOrOKl2fv0qiLpxyAayCppKA49Rny/ghzma+dfwDhZIyI7vEs+sSMIESdLOYMkhHbRN3uhOOGJZ3aIEf4FGH1fhf0AHYPiMzfVFiIpv0eSD3Xi7ybzwldJ+gMwem0tYWnLFDfUVkfPRD2lX13ghCpHrZ1mK+fZYPTs8JUKRFjArrj3szHk/v6CBuBj9oGjPy+9eJy8zK3BWHmFRX0z02KZu+MGUIrl7sTrs1QFipeq3X9Wo43BuFGla8TUZQ+NXtvkmko4yEg/fosbdp1yCcyNOGeBUbzkKxtEYykte0/4Mc1ywiArNYHV82Tx3KhmDhg9uFYO2YGKi3JLeYK6jogkJuXm6EEHjbzfDozdWPrhSbHs4faJJgYHgayw9op5amkBlGwGZi9WLox0eCqC/hZ5xm0LAkYZviim1tx5eJkZ1EyAUXxVq79UjamP+4+6sbQ0iKhiyWoeaKKRnhuA0d288YokaApKrG2kjwfQSFpQ6K64iUbN53nOI2AUd48anrkEA0Xfc8P2TUkrkhjKE9VPQjNrncNg3OBybO61sVeop7m5FuvTKyx8paD2lIA0zwkYAmM9kxYUcs51K1c3zv1ziRjMLFNfUKsYembKiQ9GiVO1JecEP3Qnwn/OYwUBNWV7o6eV1wEvs+wmF4wbgU6vAsSO/vgT68JFIxdoLFK9UDGY49JwwCgB6mWzTr7w+JMyxgAanDC/3z1/1wGvc1RAH4x/OfQkQ3sqj7UNDD8RERMmJbdvdZ689jO2pgtG35/62VecW6NVjJkkQaSqsqyqaIZOPEZOUdX6vFhgzNiaNhiFhsH970Vvf782omRVZfJOwzzPwyi5IDxUBqj+4JAphV/4+dGIpremBUa/PTievQSe5mSpbIowS5X5ls4y0I7rmVkiTrwfcmLGxatK9K9pn6YJRn8SToJ/p4Zxwvt8PhEoRnG720934/A1rh4l2WeM9n00ECfVcwOMfoe8RJz0CNYW/fHV5CQlrFsyWIIrCDEf2vq+SCJfpjIbNRglH4i4orWGH799vqNo56O9REDNqJzc8OfpBIcTfkANJjtzlwxIClZiSQbfqBWex9SAxGIOoao7AJyNe88VmG6sWqNZkeRjhC4jashNRuUGPaicWJXdA+dxNF8w3umPbCI4jnJ60MsstUhkHua+2j6KZkxBf8A4GzUp9YhoLY3KCoNWs9hk7kb3HeCbIjhSvTjxPiI3HzD38Re0nNClsXL7dk+u5BE+/WpFzwmlrzKBM2tLDrRseKdLMP7lr4KuV12QoHHFUZShhPCRZJ8ilRVNvUXqFgrOo4ZMXuGgY1OCuW/dcfUl9Ki54q7irwsDRZKzUpNzH212ZgSwxbI1DYkW0yHrWYCx03UWfpDIuXZ2gzNorAhikmZZCibDPSJmrFG3scCiw2YYTDz5fhYSMKrH+rCzbkmmHvSM5wKNbs2zZY/kK7+axsDod/GP9HIjfZcvVTHF1nSEGu24aBgYe0QKwSppkqtWS/29mJOBaPXa9aDGa3ZgYPz3oC6TpGgNGKPKqriP5fpSvlMPjbTXAV4cNAyMh4bEEOC9vkI5ELGSf/+yPLMDqbvc0+HSud+MxsDcBn1XkXoP6fKkDKmTKjFZUcYFZt+sEyT35KYAo/Hlv+gpcjhx9GyqwTzXuN5qqAte164ThLr2ZgwMMChfmoflmq7BZsEaFwNS57nP7kR+uDwwA0th4rvGA22A2a/RikANuN+gRlYfDD96hVdq8fzxyHacWmBWfM+OxZhen1GB0Y5vCtV85WoazDpxozWL2GpnqD7zBJ2j3IHx7IJxuQqLMargr1BCG+4MOZt8HwJd/Q4YJ+dlXxArV61zp7cDg3NLMDkcT4zQaoNpt/d9COw8ludZlfnfjM0on7mCxW1Bfj2VFhjhxhEa+FaYqVtVkdlsZ2iMRl8t18eWsNsGY3OEBlNtqNzXZf+2A0OOdAO4ok2MqA2G+gr9KoY17k7PWsJ2YJhyNo9c+63d2mD6OQB4EVjWel3dbzuZoUbPEnx+ag9JbTBCdwvoMuin5spi2YYyw+oz+j/cnSFVfeADxu96cQd/gwNMG4LZsb5Tjb+7AOotMEI30c8acKfzQGzBUFXVgZXOYDMCZFWVp/0/cgwUIeGvByCzDcZu86NEFHZMbvIhRD6+ozBKMOatdXpnJAOmURRdxKmNoxpAEbKBWqScKi0wQt5Kaqgp471JKwOM5OlbjuXGIa9HYAoMQVIWu5Zle8F7qmwiJ7oQDNQMpKvXBmM1j/YTI2PKbOoB1Gv9WizH5KCZAiNfzM+/K2448TB4dQYDryJLILTqM42tIWdmMuMp91/M6nylcusrzgmZgZfGiWyr32naIkkd1M0UTBnY1GCaUkO0mIEZDzIJbsVGyr3nO03sDAoafy7YE1uj2YJ9Gvg3FiK0wOh5LV6EWVVlwOJ+Sdq18yOO2mW0cTDw3a617EeraLsTBTN00h2oZhuM4NdJmgKMPiRvH5I7h6mVZxf8OJvhTi1cP41uDbV81lAaiYhFEaoBpmFW5oHJ2osR/G4uYXxnxG5popuNbn8XXZI1mOArswENMMqzMvhFy/oEGAC7Hbpul8/GwZy7NbBwrFeaHXEaBlP2CjabGmp3k4h3JjOjgyU4YHoBR50344A59sGMPI7ppGEwUhE+N8FY9bfhiGmz8SkZqMdmPfkUza/u5ciM2G3wHc1qMWYZBrNTvQ4YoeYz9KY/xuOVjp4C6O9kE0zv73Gn8VIfsiIlGG2MzYB464Kp4xcgU/7wuA5XRRJpJ3v1S2/Bo2Bg2s7jj3N1oQAGc7wcMHX4TA7WtG/Waf949hczymagfahc340+rVAAg9OUOGCU/MtnRDNn1FRe94bZ8zjmeXRndqjZRqpEE4kgZjQHk/gcMI1+CRzOqmtn1me1etxvhpwCQ1Tydc4UK5oIBMnB7sYpDZJATwE0ck4SmhVpnpPYthzH8sMjjwPGwdBoSL377M9dc7KdFVDlN+hoUteoq5qplNSMdXSbVnSQ5Nc1ysO3wTcRozJTLhEneR6RyeCMCtRICEA9ALsHxqpb/lRqNuN5YTPGQ6mXiZ1hfw4QxnOOFiHqlgZDni+Nv/QemEZFBz6UzknmQRrWqNNgxv++QTjSheESf+m0dlqBw+qZLNfsruzNnGaz2UQdLEUYjN+kssuhAyavN1zO56Vnxmjezsyhwo8fNOKf0U4dMFn9TPh2dW6t4wfaDszuTNXVP0P/+Dli1wHTeCaQA2G/sg9lOzBwZwnucNTs88HUO0n37rnhzqyTGTV1hHhIM6sf/314Z6jvFOQbKoBVX0TONDIaCt6kq8UFkzWfCYbSrrNpOzBM/ncD5kj7OqxdbbZtF91mbCYRV3C4HhON2qqzgoN2ZhPabGdwaAkeNzdDjmkViPyPgGFVQG5NkmKp493/DTASoR5+yhEZoKWd0vm/A2aNzLC0mMuJmaHaDA+7YFZ1l/Rpq51hjUBmvysWXds5kc4xrY17gjcCU+TF+0xjXDrtc10w257F3IjNWPNct4zHJlV025v/F3amONr8bJ98IeKlPxb9j8FUyaT9ii1nDacdBx68Is5pqT9VAABXjLDmGAi+t7ITO1bX5Z7V+FPVjN7VJKYVkRFr0lZa/jsw9twTTl0wy7mhbwY+JSBGzvKYlYh5p1UJ4DsPyrjX/BMhKHWPd8O6Y3+kqX2KJNaSFDdGRhCc87F0wdyXgpGjIAgfzZwRAWpQMQPH4s0kcr6ziVQNLkOdWuggmGDZQ0lRRNe97GLA770SGO8rd7Y1Ge03gpBujNfMRg6fpO2AMZf1ZMHPTEXd318OZ9EwxKMYxfUL9Jcfa2AZfL1x5p2cuzWuQTCc5uEZ1Khd6u7tuc/Z1SAN3anvl7ZHEYNFK16jwwCowxN1OmCsRU2ZpDUVQtedzj05vVNNswkgZqmSOvgnR75W5oHRH4seq0Zjp4719+IhQsUhU69ZlukV3IfBCFMlHz6Nju5U0sVTHuSiIl7pSGnisHYXDK/FeQaB1+AtC0rKH4k8gyTIfLv7tx0BXuhWjc2i7YLxB0sgE889mFztr9jv8T6PEQIqO41gfwdPiLl1QWRswkEXjMI9SD/rBGLu9uAotkmWO2XF9Bn962HJRLdFeXTkcW9US85h8Mt1DhqD7P0WQzt+Z0bSbyQBtgvVSe6zJwTH8TlHPTCc7LSUpLOsDzQexQRjR3eKmc3hw1gRxZATE5iqRHSmLHdFxuj4mR4Y5dFzzwDZzwynIYaXJIrCKEofRF01coscmGvsZJ+WOvSwBeu0M0bHafUnAnHaE1HizR3UBCQks3O+aLGd/NArZINHK2+Z5Zr3Z4BGp+r2wTicezLEu31eubjfiJyLpKv7GWtARHZMBkuf9sX5YKgn1JeQk2evEOXfqRwiYl0+rgNkHVjekaB0dNQhB4ye9Q0n0Bwf/YsjwQoNrEffVLnKHLIU0bBsdMYRb74Z50IWol517/JXsym6pBaj54T7t3sXsYSyL4GdOD4elAdGufXvMaD2V/feG14HNEzEKOcZVp3IEvRYSkSenA3InTynmFJfQKiK95N/A8253JfbN6VAoyWlnEAFJ+7W4M8E1J/9zi4JPRU3/XM0RCtbv7365hZ2D40Tqoz9xseCDUxrZONfu24N3MWCFf3VUIcvncqWfO/bVkggZuBiarf6La7zwNBdPvUiKoipg5EPFeM3Icgm9QrsUO9XauGJMZ3Njs4UJadFYAQn6Q3MhcwOP8W/mutCff6Ph+/hrz6FRS7GyVg/E0wmhs+NjWt9XruNyhK7p8NPtp/WXC5cjsqhwN7rO2gNQea/KOVIIBwML3YKDN3sEHSOToCTqQhWRubMWPmV8LVMiyhxhUUtD6X4xcRbYEyNOR0fcazHkdGxlKfAoR+nxq83NEwQQUZUSoTzrA44qO/iI5cGZkyrDWVlZ4JhQ+aTl9y8I4NaT5sNOUfbztUUL0GZaLOzb8qAfOYYuZ+pi4fJ+wGmJ2nbcXJoNnoBzJ6h++lpM8kh6jH/1I786PMsAk5lDcYts2bkPLkxc2acK5YXHhvXGQD5wqp7VkyOm/AaQa/ke/OLefmqMUMs07veu+RzCU9f3DBrlH4xUrvhSkO5yF5ZgcpvZ/kJyk6TvlcLOfnnxCaBh9LZV+KvwdHMkRzTT2DYysND43gMhoVoOntx+FKfWQRFrTrQ74EPi0FxV6bh9Ez8oMPpjInNs8EwOLA+JSGdwoIL9OAK54yS5SORpUcFRQ9LIZQQvJSFHcUnx+o3l00FHiEvAnVsIMLbZ4p/+IC/m1EiqegRVvlJ/VZcpkMkvEuf5ffaeTXTV4IzmOxHMIJuJvVRLiiGXmnl/CC8nLH0w1x6ST1fo6Cqfn+vOQJYisrMqO4GoB7SKN8nHJklYKiizF71TFe8u3/W43jP/Coa8jQgQgAyziQK6gKO4mW7QloASstbmx1v/xArVQlwOK3JloARHHNX6zUoPu7feMnx43sivUQsEf5NVEVxUDU0Ocliv14dhXL9uLSo8M3oiwmJ2OBbcSaW38FQpkrqlnzKa+/Mqxjfcm/7iBwOR1GVPoCq/0fGUTsgBsRuKCbdyy/VwtXccuN99MC4EUyRw2jxZx0YNlqjUf0hUL5GjXoGS816z3sKi8v0DoyKG/Vej/wZd+/T08302hgGAMj7QVBLmZDdaTwjsxYMCy+axlKSVXRvcUJ5s6Hjur5HyXdtnXfVoZ3jzkWHAMLOpFuDOy9vSzCCsu+cLwXiP4/Y4tzMOPQFuh3A0/gBPWZy5op+ScvAsC6lNhpCkHZOTXv6blAKxPL3D+3Ivxy0fj8Ik/S3W8+XghH2vWEBZKcetWsWuxTRMA7XN0OkiWPz2gk1kiqG7zyeLS0rwSgZ75gRoL7WMcmD+Oazm2hLUVEUXXcsKkA38x5dD0fKXUNISHG39hk+0sz87f7ZVWAEPeeezqe8g/D5jC5JGmb3/T6gtN/fszB9XzFV2XDw9mYCgExfxTu8mzff/vkG6lVgBHu4JE7NPEQqNkSjuIPaoISLis3IjiBRM5I93VFrCY61YAS/f/63t8Tef3F/TTI08b33rEFh+3swwuTEkFkknU84vw1c9fzvgaGx00oglBnP6n7eJUZ/DGZqePwUEhle02ArJMJaMII5flR8mGgUpr7D54ZIhNVg9GUdqlQHX8PnwD0Oy2klGMGXft4aIhk4DbyfbjGfR2vBCBNjg/pQoCZlnr31phS0GowQ/HDXA3XfTrvnIus+h9aDUfo3uQ8RMA6J5/zJphS0Hgx10uaNdJZEI//lTvnfaQMwrDl2Mm0mUZvy/Cv2+tIWYNj9SOPVJ6heUn6n4Ka0CRhB8FJj6K5yKvS4kcH5S9oIjGAH1yPsO8dkB0UxDfy/3xVGW4ERFP9ONJai/QCiMRiQ1LP2yG5/Y1Q4tBmY4ravSNJeBlaRTAOz40EkUbAsZFxIG4IpEki+mUfpO4nCLPBc6w9tCo82BVOQ8qXNv3mS/g+gC5wAC+YEPgAAAABJRU5ErkJggg==;" parent="1" vertex="1">
                    <mxGeometry x="664.06" y="253.5" width="31.88" height="30" as="geometry"/>
                </mxCell>
                <mxCell id="3" value="" style="rounded=1;whiteSpace=wrap;html=1;fillColor=#fff2cc;strokeColor=#d6b656;" parent="1" vertex="1">
                    <mxGeometry x="554.06" y="277.5" width="120" height="60" as="geometry"/>
                </mxCell>
                <mxCell id="2" value="" style="sketch=0;aspect=fixed;html=1;points=[];align=center;image;fontSize=12;image=img/lib/mscae/Kubernetes.svg;" parent="1" vertex="1">
                    <mxGeometry x="589.06" y="283.5" width="50" height="48" as="geometry"/>
                </mxCell>
                <mxCell id="15" style="edgeStyle=none;html=1;exitX=0;exitY=0.5;exitDx=0;exitDy=0;startArrow=classic;startFill=1;entryX=1;entryY=0.5;entryDx=0;entryDy=0;" parent="1" source="4" target="42" edge="1">
                    <mxGeometry relative="1" as="geometry">
                        <mxPoint x="340" y="370" as="targetPoint"/>
                    </mxGeometry>
                </mxCell>
                <mxCell id="4" value="" style="rounded=1;whiteSpace=wrap;html=1;fillColor=#dae8fc;strokeColor=#6c8ebf;" parent="1" vertex="1">
                    <mxGeometry x="550" y="407.5" width="120" height="60" as="geometry"/>
                </mxCell>
                <mxCell id="5" value="" style="sketch=0;aspect=fixed;html=1;points=[];align=center;image;fontSize=12;image=img/lib/mscae/Kubernetes.svg;" parent="1" vertex="1">
                    <mxGeometry x="580" y="413.5" width="50" height="48" as="geometry"/>
                </mxCell>
                <mxCell id="6" value="" style="rounded=1;whiteSpace=wrap;html=1;fillColor=#d5e8d4;strokeColor=#82b366;" parent="1" vertex="1">
                    <mxGeometry x="560" y="560" width="120" height="60" as="geometry"/>
                </mxCell>
                <mxCell id="7" value="" style="sketch=0;aspect=fixed;html=1;points=[];align=center;image;fontSize=12;image=img/lib/mscae/Kubernetes.svg;" parent="1" vertex="1">
                    <mxGeometry x="595" y="566" width="50" height="48" as="geometry"/>
                </mxCell>
                <mxCell id="16" style="edgeStyle=none;html=1;exitX=0;exitY=0.5;exitDx=0;exitDy=0;startArrow=classic;startFill=1;entryX=1;entryY=0.75;entryDx=0;entryDy=0;" parent="1" source="8" target="42" edge="1">
                    <mxGeometry relative="1" as="geometry">
                        <mxPoint x="320" y="400" as="targetPoint"/>
                    </mxGeometry>
                </mxCell>
                <mxCell id="8" value="" style="rounded=1;whiteSpace=wrap;html=1;fillColor=#d5e8d4;strokeColor=#82b366;" parent="1" vertex="1">
                    <mxGeometry x="540" y="566" width="120" height="60" as="geometry"/>
                </mxCell>
                <mxCell id="9" value="" style="sketch=0;aspect=fixed;html=1;points=[];align=center;image;fontSize=12;image=img/lib/mscae/Kubernetes.svg;" parent="1" vertex="1">
                    <mxGeometry x="575" y="572" width="50" height="48" as="geometry"/>
                </mxCell>
                <mxCell id="10" value="Integ" style="text;html=1;strokeColor=none;fillColor=none;align=center;verticalAlign=middle;whiteSpace=wrap;rounded=0;" parent="1" vertex="1">
                    <mxGeometry x="579.06" y="331.5" width="60" height="30" as="geometry"/>
                </mxCell>
                <mxCell id="11" value="Stage" style="text;html=1;strokeColor=none;fillColor=none;align=center;verticalAlign=middle;whiteSpace=wrap;rounded=0;" parent="1" vertex="1">
                    <mxGeometry x="580" y="461.5" width="60" height="30" as="geometry"/>
                </mxCell>
                <mxCell id="12" value="Prod" style="text;html=1;strokeColor=none;fillColor=none;align=center;verticalAlign=middle;whiteSpace=wrap;rounded=0;" parent="1" vertex="1">
                    <mxGeometry x="570" y="625" width="60" height="30" as="geometry"/>
                </mxCell>
                <mxCell id="14" style="edgeStyle=none;html=1;entryX=-0.008;entryY=0.617;entryDx=0;entryDy=0;entryPerimeter=0;exitX=1;exitY=0.25;exitDx=0;exitDy=0;startArrow=classic;startFill=1;" parent="1" source="42" target="3" edge="1">
                    <mxGeometry relative="1" as="geometry">
                        <mxPoint x="345" y="348.75" as="sourcePoint"/>
                    </mxGeometry>
                </mxCell>
                <mxCell id="17" value="ArgoCD" style="text;html=1;strokeColor=none;fillColor=none;align=center;verticalAlign=middle;whiteSpace=wrap;rounded=0;" parent="1" vertex="1">
                    <mxGeometry x="267.5" y="420" width="60" height="30" as="geometry"/>
                </mxCell>
                <mxCell id="21" style="edgeStyle=none;html=1;exitX=1;exitY=0.5;exitDx=0;exitDy=0;startArrow=classic;startFill=1;entryX=0;entryY=0.5;entryDx=0;entryDy=0;" parent="1" source="19" target="42" edge="1">
                    <mxGeometry relative="1" as="geometry">
                        <mxPoint x="250" y="372.5" as="targetPoint"/>
                    </mxGeometry>
                </mxCell>
                <mxCell id="19" value="" style="shape=image;verticalLabelPosition=bottom;labelBackgroundColor=default;verticalAlign=top;aspect=fixed;imageAspect=0;image=data:image/png,iVBORw0KGgoAAAANSUhEUgAAAOEAAADhCAMAAAAJbSJIAAAAilBMVEX////wUDPwSSnvRiTwTS/4sqj5vLLvQhvyalT++Pfyb1r4uK7wSyn97Or+8vDwTC76y8T+9vXxVDf71c/yZ1DybFb2nY/82tTzc1/70Mn0hHP1jHz6zMX5w7vxWT7zemf95uLvPhf0gm/xXkT84d33pJf2mov3q5/1k4TvOQrzd2XxWD32pJr0iHiDZPiRAAAKe0lEQVR4nO1da3fqKhCVgNqoTeqrx+rV+urjtrf//+9dn1XiJMMAkwTX2R+7VpHtDMwGNtholIZ4+NwZCCE2P61leZ9aHuLmKIqU2COVg9m26v54x3YsU/ELFYm3qnvkGfNrfge0X+OqO+UT3Z4SWUSdx6q75Q9zeUtwR/GhX3XHfGHeBvgdKCZVd80PuhImuKd4F4naAsbgZSzeQRTn7XyC+ygGP6N2c8bgL8VR4InaTYsieEzUoCkWp+g5igEnagtJ0fNYDHa66fZMCAacqLCSASmOg4xinpKBEzVAAZevZGCKwSVqCy0TGYqhqZsngzKRjWJQRcOsTGQohqRucCUDUgynaJgoGTiKgSQqpUxkKIahbl4sI3igOA4hUfszUiXMUgwiilMXimGoGzeKISRqwylRgygasVsUgygafxO1mGIYifrzd0Ytpli7ujgE/uYUxbqpm7l8vv1jfEfqZreagCg6JmqNisZh677tnWJ9lsSnPRkJHc3fRdH43ZMBx6LTdFOPJfHVnoz/RK1D0dD2ZMDpximK1SdqZus+8p6oVaubmz0ZhqJRaaICW/fgWAxW3YAmBDBR3YpGZVHM2Ta8H3WTa0JY3Ym6Kdi6B6N4SFSVRpHFln8lRaPwdAlWN6so3XzNZpNNenaamlMsX90gp0vgjNp8OU0Z/eHbgrgzXnrRgOyUGsBEvULcGtEGZsmJamBCgIqGhuSZlqqlqhuj0yUsio3GyyprHK4LRUMTAjgWNSw3RIolJWqRnVIDHsU/A1qilqNuCCYEnOJ8RWFYjrrB7JQaQHWj4T2iUeRXN0QTAhrFRFB9N8wUySYEtGg8E/Uqs7qh+2SURCaH5YL6nXGqG1M75XV/frBGp9RGGRPV3E55gZxjrdIsfgeKXBv+Vj6ZAXpJbbkiN8qkbujf9Q4Kn90Ti2ZZ1A3VTnlE2kFnvv7IomEGdUO3Ux4ZvqItxx2SOD1T9K1ubOyUB4ZfTAx9qxs7O+We4RidE/obSyejz6Jha6fczTQbfKax3YTzqG7s7ZRC9P5grQ+rN2t2afJfh2xizT/bN+9pw39O3fnTkHaw9iu3M7ik6KETmKhJOg454kHdkBa8YB9m6Ge4UXRMVDslo0GiyjR5daHoVjQslYzeBfxpgWTiFEWHomGrZHTgu4o7XVNNolormWwX0IrR6H9Vkaj2SiaLdgv9sMSJot2M6lomNIrv6Mf13RLVoi46KZnbLmwge6aG2Gm6oasbNyVzizRao6XfqWhQ1Y3PFD2hrc83wMhxVDekouGsZABkNHgTmmCdKFKWxB6UzC0yDFur7u0Hl6VufCiZW2QZygii6DTdmC6J/SiZG9wwFFAUHdWN0XTjS8lkcctQSIBi/4vbrGmzdW8EgKHqQYnKrG4YysQJAMOcKLImqtXWvRlAhvBYZFQ3xiYEC8AMBZiobkWjIIp8KSpyGSqwaDCpGw4lc0EOQyH+BSjyqBuuMnFCLkMBRnGfqCqSUlq4NXOKhr8FL4x8hnDRmEg1+nlrNp/Xi97Nu5IIQHXDpGQuyGeYM6POf0vbttmhWeCgooHaKZ1RxBCsixpexo5mTTYlc0EhQ7Bo6CH9oI3HTBRZy8QJxQwVGsXGsG1v1mRUMhcUM4THog57s+acfQzugTEEi0YmilSz5mlG3fKPwT1QhqC60UE1a64P/xWPrZwCZKAMc9SNhhlN6rQ/9v/ULGMQCiOGeNFY0qKhBstdCEflhNCIIahuXIIoP3ej1+vedtGHGTAU6QZhuKXNGWrx6GIUoMGIoUTPcL5oKSfnjU4pE6kwZCjQA+M3ojH8vTHw0XsTGI1DfDvwiSa/VKfhp/sGMGGYrjGCjWRF+9hBvRgaGDfIdtSaMcRPUhOactsx3HjpvgGMGH4aMCR9qho1fkoq+BWNw3SaN2v7hxHDCXp69Ic2l+4+dUnNa1sYVYvvJcbwgxiRLVnpWcNM0zxhDNekUXVwYW/9EEBhxDCaIgSJl4iO39hbCZs0wlS1KUTU0NZ6pyVww+UcxBxmDKPiX0mKSbNGOjh9X07nIMYwYyiiwsOxD0pP1eDXpvT4UAJFU4ZFJXFLyVGlrqatfgkUDRnCT4adko2yH6F6mtEs4adoylD08syafcrZsFIZJ90j+1g0Zphn1iQdfqvBTWVlj6I5Q7H6BMTbnxGFYPQCfEWUFixAYCii73mGY/LZI41B8KoOc6JSGAolJ93LwUq8fN6QZtHBPxDBHUXWKJIY7n8GUkw/noaP22H3bdImHTyoXg7B3XfFORaJDHfoSdneQUbEje6i22Sc6obO0A5qAEwyV4k6ZqNYEkMlkAUYX9Eoh2FGyUBgE3ClMLxRMmCiMo3FMhgCSgYCU6KWwBBUMhB41A0/w8IyoYMlUdkZ5ioZkCJDFLkZqp7RGDyDQd0wMySk6BGJ99LPy1AJw0nmAu/qhpUhqmTAKPpNVNnTXxvqrjw2bqBkIPhUN2nvLXMRIn4X3k69VGpF0GfRiMZAF4a+vkFDJQNS9NQHuQZvsvRfvYxF1SNPMhf4KRoy93Te5Z3vM8hlQoePRI3yX1Lqux+ZkJQMSNE5imqzLGie/sZdpvXUegye4Tyjtgu74FgWHVP0CEd1g7329eBSM5SwLBM63NRNhGTRk0MQrZQMBBd1o76RxvsP1k4JpzKhw2FJXHBWdgLxFdprgh7G4Bn2RUOiA+UfSxuBg5IBKVpGUS2WWNOJHcOCrXs7WKobtjf3VOQxRY+w2/A3sHFZvZuIbN3bwUrdpJgDyI6hZkLwBxt1Y/B+aTwhM7Rc8OKwUDcGxu3kmzoOPSkZCPSiob7x19qoc6nnMpHpDTlR8XpINN/7VDIQyOoGd25/0lr0qmQgUBNVLZAGE9pDyc4LXgOKxChKJKfmpLWFdyUDgahu0nFxcyRFw6BkIBDVTfFlLdIVZBYlA4GmbgrF95Ly8xZMSgYCTd1E41xdk1D2MNiUjAeKeaZYNzslL2hFQ05B7UZ6uoxVyYC9I0VRQg9Dvmxc7ZS8oKmbVH4u9f9fTilvT7IrGQhEdSMXs+Hver8/nA1orvsSCj1AkaZuVLTa/Hx0u93Wfz+LNu1fy1AyEMh7N4dXkfYPIxGvnFeRokeUcxWlNCUDgdGseSHoa+veDvz3NEpVMhC4b9uUrGQg8Dr8S1cyEDgTtQIlA4HvKkqFZUIHV6JWpGQg8FxFIdopecFxFaU2KXqEf7OmhZ2SF77VTcVKBoLfolG5koHgU92otFZj8Ax/RaMWSgaCL7NmZQteHH6KRs3KhA4fiVrpgheHB7Omu52SF64zai3LhA43dcNoQvAHF3VTQyUDwV7dMJsQ/MF2SVzrMqHDrmjUVslAsFkS11jJQKCrm5JMCP5A3fCvuZKBQLQzlGdC8If+xNxIEoCSAWF8qSkIJQMhXptFMagyoSM2umAYjJIBYZCoASkZCPEao1ijrXs7YIkamJIBUUgxOCUDoShRA1QyEPITNUglAyKnLoaqZCCARaMGJgR/gNRNGq6SgRCvs79bFw3uKIIHfAyu3z5M5dri19BrjuX74mjZU6kUX3eVob94nL93BkKMpk30updH/A8xb7ymvsY7fwAAAABJRU5ErkJggg==;" parent="1" vertex="1">
                    <mxGeometry x="50" y="337.5" width="70" height="70" as="geometry"/>
                </mxCell>
                <mxCell id="20" value="k8s manifests in Git Repo" style="text;html=1;strokeColor=none;fillColor=none;align=center;verticalAlign=middle;whiteSpace=wrap;rounded=0;" parent="1" vertex="1">
                    <mxGeometry x="30" y="407.5" width="110" height="34" as="geometry"/>
                </mxCell>
                <mxCell id="33" style="edgeStyle=none;html=1;exitX=1;exitY=0.25;exitDx=0;exitDy=0;startArrow=classic;startFill=1;entryX=0;entryY=1;entryDx=0;entryDy=0;strokeColor=#006600;" parent="1" source="22" target="3" edge="1">
                    <mxGeometry relative="1" as="geometry">
                        <mxPoint x="490" y="280" as="targetPoint"/>
                    </mxGeometry>
                </mxCell>
                <mxCell id="34" style="edgeStyle=none;html=1;exitX=1;exitY=0.5;exitDx=0;exitDy=0;entryX=0;entryY=0.892;entryDx=0;entryDy=0;startArrow=classic;startFill=1;entryPerimeter=0;strokeColor=#006600;" parent="1" source="22" target="4" edge="1">
                    <mxGeometry relative="1" as="geometry"/>
                </mxCell>
                <mxCell id="35" style="edgeStyle=none;html=1;exitX=1;exitY=0.75;exitDx=0;exitDy=0;entryX=0;entryY=0.617;entryDx=0;entryDy=0;entryPerimeter=0;startArrow=classic;startFill=1;strokeColor=#006600;" parent="1" source="22" target="8" edge="1">
                    <mxGeometry relative="1" as="geometry"/>
                </mxCell>
                <mxCell id="22" value="" style="shape=image;verticalLabelPosition=bottom;labelBackgroundColor=default;verticalAlign=top;aspect=fixed;imageAspect=0;image=data:image/png,iVBORw0KGgoAAAANSUhEUgAAAOEAAADhCAMAAAAJbSJIAAABR1BMVEX///8AAAD/cz7j9v3N7ff/azz/bz+z0fP/X0Kvz/Ll+P0EBwfm7/v/cTv/cj7h4eHs7OzK8//AwMD/bjX/ay3/Wzv/qXj5+fn/9/X/bzff8/z/Y0H/WThNTU1ra2vU8Pm82PX/UCr/glS1tbXD3fb/VTFaWlrz8/Otra3Y2Nj/aSjPz8///Pr/sJb/vaejo6OOjo43Nzd1dXXT6vmWlpb/lnL/ybgaGhovLy9ZWVnK4vff7Pvu9Pz/7+z/mokpKSn/z8f/hnH/oYH/hln/5Nv/2s6EhITtppDzlHjosaH/bFDR4+r/dlz/r6H/pZb/jXreysXiv7b1i2v/k2H/nm3wnoT6fVXprJzroJbmr6nfwsHyinv/aUz3eWT/vbLluq2wiX/bYTCCMAO3TSEpGRReIwQ2GhCrTyxvNR9QJxePQybDw9n/XAA1R4+fAAASPklEQVR4nO2d6V8aSRrHGwxyKGDbzXAIhqtVDk8EEwQvwEzUqElmJ3MYs7Ozu5mdzf//euvoOrsbTVbo7vnwe7Ej3QWpbz9PPU89VQWrKDPNNNNMM80000wzzTTTTDPNNEWle4uH3WoRqlptHS723O7Qk6p3WC2Go5LCxe5i2u2ePYXSi90w4ql2W60cVqvVNZHDXb/bsgfxwtVWbi6GNAdl/plrdYsAsuhnyMMitFJrjqBJApdzLQhZ9SnjITBfteVAxyhz0MzFRbd7+/UCfOFubjyeCTkHDVn0mR17oM+A72E805AtaG8/RdYu6O/cY/koY/jQ7X4/Vr1wtPho+zFfrfrGjIfAQR8z/iyM0Ix+GI3VaJgzYExReFic8Z0QY8CMnvfUdDFa5EcgvAZf5p4/f8br+XM7zlgL2N9thPECQ7ArOCi6mBPpGKUlGkHEqtsQ49SLSoBzMHTY82HJlozlQJhyG8NZwIItDjCdhgMvNg4QWtJHiGkBEMQYpTcezpYxNhf2rKMKgCizzT2KUPJVaEVvIha5MRhDV3KPBJTMCBG9mDS60SoFRHk7ZoeiAtmbkRvAMKJ6r9g4jBZpH5GHWgyoqpe127efPv1yW3tmg8mbESJ6bQKX5mYyqG9SBFWf3b4aZHWoel2ff/fp0gIpIFY9F1CLLMpAwLTM97pc1+KJIFQISq+/ux2HOOe1oXjIBiEE7El8HwBekGoeMYbqP8qMHGIsF416aRaeDoed06B6W9aDgkKm6t8/Ux0Rq55KGV3qoxBQdFH1Qz0eDNojavM1R0Tgp96Jpz0WR+FL0fXauswXDCZC1IxvJUSWUlseCjbVKImj8JUYRd9pECluRhlpKNogsulNrOiZYMNMCH1UyIPq99CCicTgfTlrb8RQXYo3cx40omBCYSajvkKAwe+A3sftjRiq1xyGomeMyEwIE4UAeIvGYPwHSPhdOWFvxNC8OHBznjMiDaQWH30Wx3ZDgN8NBCNyhPoHBz8F4dQTOTEcZj4qJAr1FYoywTgmLDu5qaOfxrqeWLVZJEUTNKEQRy817JfxAQT8wSlhAH3vYMRcNOw2ngKdNEdHoWjCD5pJAxF/CCacCfVLh5FY9ELWDxeZk4qpMEjdMp7NSglRInxlb0QQa9yfuvV4JxW6eWszmbEPNaFQ3CHte8FNuyQZKtKyjPq37OMJHWONB6JpMepgQjVomXA7E+qvHdy0627S7x0e9sgwjMk1xWV9LKBIKEdT4qYw6S8euragkYaHKcgwTMtrh7WvIvxReC9zUzAQwT/iFuJiNByma6SKFEnVt+MDjUQozdyYm4bhv+FWysCEOYdh+OmrCKWMyAiLrhOayxeWYai+1hKhlZVIJLKyMu9IuIIFgqlESAdi1X1CGmjEFWD1Qz7CtJKwIVzh7ss2JAMRBFO3CYsOgeanVCSSMoxUJG8g1JAEmIB8qbwBlIdNTy9VW8KW64RVGmiEwumjEcmXbk6G/Ux/9OaiBM0kAkK+0sf7k+Hw5P6qlAKwDQHRi4R8KL1IRUpHfdry5CIvIs4DQK5B/wg8g5KwnEEIc24TknSo8ITqaT6SOuGbNo8M3lGBBVMRocEJ8NR8zS+E6s9GxBhJjSEijalgDKaG4v0heCgXqoVwzpOEl6VI6cTS+jRF/RT4aGko3x+WIsbPqi8I1Z/yqRvSZilJ/uqnqBFXIvk3rAGZkl3nI3detKFNpLmL5M0Ysr4WCBw3GMEKMeFd07y4FwgcVPCfmUjE+EWVCN0fhzaxtFFKnZotdgMLC4HAEn7RByMxIZlwNRAADcxncJ1P/WohdD9bFOV8qP6cN+5xgyQABIj7ZvurFHbTlYhhjsI0brCHX42MyIUH86FlTqP+miIADQFAOTIJQSDN4CvmI1jDrzIgnF7KhO7P2syZd5rOS9WblGEOw3QAEgTMcaa8yeOUGIlckI/ADUwjN+8iBkmJZA/KC4S0ekqTdE8Jle0AUIG0NwlBur8il5ZhgxfmC4HQO7WFWQGz+hB6KZ2ONfbWNmj7a2rDO3qttre2TdJFE0xriJfS6sn9+tCSEEE6NE5s25+ySNO3uw+D7TOJMOeBGr8qLyb+YuSv7ZpnUjRb2D+CjpH6SLIFH0rdI+zBlShSAvfoQLzMs4TO68QwM34owuY8vE5T+Z9UaRh20XekXFszXex2013LQg0ciPc2ra9IdQFCjWGZloKJKZivW4dh9LDr8teGFrnFNtNNa6VIPmNpeA9GGS0tUh+tn3SVYlMaMiuNubeSSJUmA5G5qfpr3koASgdWIAIjvpEbXBuREjEhzYae2AUuksNCCpua3qXyp+JQBDMyrsiH5ZOECABZ8cRW2rywk39I3DTNDkPV8pH8BT/U3hjiKkYIWPGG8+T+KQC0TLs9ss2djhYte8BqzUgBBLPOz9xfGPKCIqzyU9fmQxiCqgIA0lk3t9BWdAuLV5XbXyNGVC8/GnAx8ero6OaiZFiW2pAVI/nSyunR0WmkBKbcdvW9V46b2G/kgyIKLhgCoRVf67I3WjClDa64A27UhF7YH0UqRlmsYUv7l/V5c1HbYVk/OL9CVr1XtA82i1AgznjhKIYCYw1nxDlGCA2VmLeu5wuUQKCFxu2Q8lvcridDU0WzhEIn2KmfPrB/KEj/RAmfe8+EnBGFw5dfRfjWkiliHjIhHIk5y26+qo33T5Hw1uKjIJB6xoTi+UuyyfbQSQVBdXn1AtVNbmPxqnJfCCJZXzzHNt6ghJA7Be2xw/ppsl7DENV3og0li2aF12QLmH6Gxw6yKzDts6/MYES1zZ8Y0kZljUfS28KJWpOQAba8FGawqvx3KyGieCZKv22+Z2f24/UzRTBxXQLMeemgPlGR/27ec3a61HTKvytKJ6vD83vxbL08UpZ+402qqeKXLcJeiqNEvTD/He4cd/gS6R/A6TJbg7iuBduw5tjgLZwIqgJg0Rs1haxF4WvqOelAze/nqFGm38el8T/5m/GyKn5dxnODEOswGua+nB2TDkUFNvi2a/8SCAcxPwAiRGZFmfDfdA8K7St+5u9l29yT6Xr5lxV4xJh0gvZzILBbQbZJ7gcCAeFe9izGWdALKxeO4hGT0sE2uFkaOCjsws2YwB/CLW2TTPpAkPE0IPrZD5I0ZMLPaCctgDfUfhMJP5gT91zRyy6K1aO/bLKkiYTB/6D9ULQn+lm8o7/GG1itcLTo1SDDBH/7A3nqknw8HwQbE/BP6Yb+KQY9tOvxH8Wg6mIzxqzl0x9oDC58lq/rb2PYQz1VTozRIvqRoVjZWiD+9vnPP3+3XAWz1tgceC4+8FAq6G85G0IH6UnwBt8YEAv+2NePjyf8L3BsHxkQazH8LvS4lZrEvPZff/7s3rvQ/AOrpUjz8/Oa7b6+59UPzZvrvWPtBxWy3fj3vK4x4TjGBGlh2G38e139UogR2EKSu/PBhP3pDY/rNBXiIGTIBHcH7gk7HMHxrponH83TpIwEYSIJl1CwiUTy1zbHMzyq/sn1VclI0U1RAUgSCadwu9TIn96PvB9U+29OV4ySkU+lUvk7DFguJ+whgeOa32Avo/ZGqWTc3dxbD6p4Tc3+8OT+6Obmfoh/b2CAZm8yJfLOeBsRapujo9OjN/cnw76/YmofE7a5nxpAw5DFm+wZWlPUttzu6jcqo2GKgeP8NLuJmugdt7v6jcqgEljbdCbUOv4mbKISWNtChHGJE73UO8hLdfkLNr4RCjFaBxO2ecJEEL3UR2hf0b+E2E4neB/tTNyoQC/1ISKs+yfZS0I7iPoIEiaCmyLhpkmIHoL387yDMOEQ/ide3tQEwi34st7HjuxbwjMNdR8Rvt8SCTswWdYz0JETce9PYxwEzZbIZiBhti0QxoMjRNhE9EF/zWQ4IcIgosieiYRlk/AMebDbHf1mbenQQGg4apsSIZq01tFDiA/c7ug3C441YCBoJ21LIuxjQng123a7o9+sEx0ZCBLqnY5ImMkmICF8CD4mHOHuI8KTjm7GGPS/gybM9Tp6CNkztzv6zRri7sOkoY8wYRwv9QPLQlYdPQRt0+2OfrP6ddR9GE30ISbUttA8DRAC1ISmDOu+JszUUXWLCPuYUB+iyWr2PZy0AkIYcHS/FsCYENR+gDCRxYSJOBqVcHSCHJLIgio54d8SX0ETUlA3QMJgBhEC70RZA8cfwAudNR70ZQWc6bR1OJcpo6kNmJghQu0MxRZECK+aswK9vOWvAqo53BrUdS0ez2r6EBOWUV6APgtdFxIiy4LGAz0LGur1+ObIJxPwTOdsEAyWkQabsC4CMQV4J7IdBIZpAuQQaDxUGHbauDF4U9sXpmxmxEqheQZRNhVzqo2rRkAI8wSYnspvnmJPn0KZ0VZbB96oBTOIEFURaCoKpjFndWDb+mDLByv5dmpmhltnZfgb+pqma+0+noaj+Rmay70Hf2wG4c16vR5sb458ttqtNEedLahNoK0ONFITTtfQwmgffhEDLa8BE6MGSB1/mpKqE4SlbhYNszZaotn025AbI5A8yjpcj6njzN6HtEEtfuaX9DBe/Q4Yjlo8AVMembr00f8VRFzTs/5ID84agkj65QsIJXV4fn2Ls9jorJyFMab+5cuXgW9SvVWZfobKEiqb7J7f4uhMM80000wT0fqS9VKyZr0oaymZfLjRJJXcXsVfoFjdTjq1SS+fH8M2e9y12n4BHWkPHOwtO54Mbuzg754Ejs+Xn7TXj9ey2U2sgm031ncWSIM1+/ct7KzbvbGyyzc62HfhiHRS6AJitDrUNn+/ht9XkN8nfqnN4cMXpm7HfUs/gSpim3TBenfD7n1rkoW27RrtKVPVnl0fAtz374CWjsWb8BcubR9MILC7/ogPLyhTlEMfBIdLH0gUioNxoF5wH77j1GiKiA6WgGrQRtJQKqybv5JoLxqH7P0Ya2qOWmP/5sLexvLyxh4NmIEDMqQ4S+zuVJZhNknz76s0asv73FMg1k+ySwfnlUZjef8FuzKtcMP+SfKjjmlm1R25o7vUrOeW9ykN9lnmUHxpYVaWmb9PhU+p0L5z8SFJzYg7v0pesuBDoQ/46QHFxt/1pv6xy8dX+mnbE+RiKtj1gfUfdWLJCkj9dkHMmzRqoVerth9OL79QpiCKIiV4EkZQxCNB8yXXgPhaQ3wfDUlwkK2TD5dmgTQw156cxyrSeYvDkBEEyQvc36aI/63J7yM3VhX2mHbkRmRo7Ms3JiACYrlBerfMouYqd5s8GdmE9HHAhEk82ToB5D1kwjJnKja5iRmXeDI/jTNDyoF1Dk0CcZo+vmPrh+853nlqrZtB0zpdJlnkHP7MtXXUrDoagRh/iY5Jm8dnusCCbSXypCLmsUm+a9Q1uT5TvXQYhux5JOlDsgxDNhAnXxH/v4Qvre/jCHepG8jamBrhGC89HktoDiSbjLbBCAuOrmzGIJth/ORiHLICYwn3GYekVXaHpH/rh5vW3X06EEc9mC0cCMk1Sx7lszwxZ0VuRAbHNMoLktcs0YDMTRwIKYjsZ3RmmmQgFl8mdragT0B01iZNoGh160BIApHs3yTOYP8lj0mKNXS2P/lkobAZmTiiWHXrREhbCL3nik34efQ5Cc5Mn8J0amD20Ll4ypX9ToSs6n/JLMFX9OiJ0Vd7zJvZ4seU1ofZEtruBvon1ze4OtyZkD2awA6iWRdXRdE16o+Bg33Lh9vkyYloie/Wi0KBxxtHKCxgHRQK8qIo9vo17sqx+OHTSIZYY1aUxhIq1tVgK2H6+IEGU9GY9bCxhOsvxr3RBFhacLhvrbsmqIpDJx4gVNKW5XoroWUp2Q1Au50FMGrwf7jqyWbcnDu+j3NCmxVnm12RSWtbWtN+0WjQZ23W+LYFeU0ajAcVrrYgakgP8MBmoj95pStsbRNvrm2bJiRu6hAZGpyJChWheuIarYqN3FKtsr+zs7/RMN0xubNvzuWS56vj9vxqlZ29vfNt/D5bQthog2vkaznGJf+psfrSbseXLLD531bbDoPTTJLTKG4nq6RDgCVOOuVN3gmITITkNaxjh+v+E50HiaUzTTkudesJxUoSbv6VpqXENHYkJi22LXxOImqFTowW/B9JgbiiobBfWd7mp5/+H4VQXJEva1rV+6TlWHRN9azMROWAaLNd41vZLoD8VVwUa2lV5jv4awQZTjWBcdeV2nbSWtpY3QWJcOG4sD+NsxUuKb20NJU9iJlmmmmmmWaaaaaZZpppppkepf8BMDUllmUtJJYAAAAASUVORK5CYII=;" parent="1" vertex="1">
                    <mxGeometry x="260" y="482.5" width="95" height="95" as="geometry"/>
                </mxCell>
                <mxCell id="25" style="edgeStyle=none;html=1;exitX=1;exitY=0.5;exitDx=0;exitDy=0;entryX=0;entryY=0.5;entryDx=0;entryDy=0;startArrow=classic;startFill=1;" parent="1" source="24" target="22" edge="1">
                    <mxGeometry relative="1" as="geometry"/>
                </mxCell>
                <mxCell id="24" value="" style="editableCssRules=.*;shape=image;verticalLabelPosition=bottom;labelBackgroundColor=#ffffff;verticalAlign=top;aspect=fixed;imageAspect=0;image=data:image/svg+xml,PHN2ZyB4bWxucz0iaHR0cDovL3d3dy53My5vcmcvMjAwMC9zdmciIHhtbG5zOnY9Imh0dHBzOi8vdmVjdGEuaW8vbmFubyIgd2lkdGg9IjM3Ny4xNTkzMDIxNjAyNjMwNSIgaGVpZ2h0PSIzMzYuMTYyNDk5MDAzMzEwOCIgdmlld0JveD0iLTAuMDU4MDAwMDA1NzgxNjUwNTQgMC4xMTI5OTk5OTgwMzMwNDY3MiA5OS43OTAwMDA5MTU1MjczNCA4OC45NDMwMDA3OTM0NTcwMyI+JiN4YTs8c3R5bGUgdHlwZT0idGV4dC9jc3MiPiYjeGE7CS5zdDB7ZmlsbDojNjY5ZGY2O30mI3hhOwkuc3Qxe2ZpbGw6I2FlY2JmYTt9JiN4YTsJLnN0MntmaWxsOiM0Mjg1ZjQ7fSYjeGE7PC9zdHlsZT4mI3hhOwk8cGF0aCBjbGFzcz0ic3QwIiBkPSJNNTMuMjQzIDYyLjA5VjQ3LjA5NGwxMy4yMDEgOC40MTZ2MTUuMDM4em0tMzMuMDIxIDBWNDcuMDk0bDEzLjIwMSA4LjQxNnYxNS4wMzh6bTE2LjUxMS0zMi4yODVWMTQuODFsMTMuMjAxIDguNDE2djE1LjAzOHptNjIuOTk5IDMzLjk2VjI1LjQwM2wtOS41NjItMS44ODR2NDIuMTMxem0tOTkuNzg4IDBWMjUuNDAzbDkuNTYyLTEuODg0djQyLjEzMXoiLz4mI3hhOwk8cGF0aCBjbGFzcz0ic3QxIiBkPSJNNTMuMTg1IDQ3LjA5NGwxMy4yNTgtOC4yODcgMTMuMDE2IDguMjM0LTEzLjAxNiA4LjQ2OXptLTMzLjAyMSAwbDEzLjI1OC04LjI4NyAxMy4wMTYgOC4yMzQtMTMuMDE2IDguNDY5ek0zNi42NzUgMTQuODFsMTMuMjU4LTguMjg3IDEzLjAxNiA4LjIzNC0xMy4wMTYgOC40Njl6bTYzLjA1NiA0OC45NTZ2MTIuMjE3TDc3LjAxIDg5LjA1NVY3Ny43NTJ6bTAtMzguMzYzVjEzLjE4Nkw3Ny4wMS4xMTN2MTEuMzAzek0tLjA1OCA2My43NjZ2MTIuMjE3bDIyLjcyMSAxMy4wNzNWNzcuNzUyem0wLTM4LjM2M1YxMy4xODZMMjIuNjYzLjExM3YxMS4zMDN6Ii8+JiN4YTsJPHBhdGggY2xhc3M9InN0MiIgZD0iTTY2LjQ0NCA3MC41NDdWNTUuNTFsMTMuMDE2LTguNDY5djE1LjR6bS0zMy4wMjEgMFY1NS41MWwxMy4wMTYtOC40Njl2MTUuNHptMTYuNTExLTMyLjI4NVYyMy4yMjVsMTMuMDE2LTguNDY5djE1LjR6bTQ5Ljc5OCAyNS41MDNsLTkuNTYyIDUuODh2LTMuOTk2em0wLTM4LjM2M2wtOS41NjItNS44OHYzLjk5NnpNLS4wNTggNjMuNzY2bDkuNTYyIDUuODh2LTMuOTk2em0wLTM4LjM2M2w5LjU2Mi01Ljg4djMuOTk2eiIvPiYjeGE7PC9zdmc+;" parent="1" vertex="1">
                    <mxGeometry x="41.11" y="495" width="77.78" height="70" as="geometry"/>
                </mxCell>
                <mxCell id="26" value="Argo Image Updater" style="text;html=1;strokeColor=none;fillColor=none;align=center;verticalAlign=middle;whiteSpace=wrap;rounded=0;" parent="1" vertex="1">
                    <mxGeometry x="250" y="577.5" width="132.5" height="30" as="geometry"/>
                </mxCell>
                <mxCell id="31" style="edgeStyle=none;html=1;exitX=0.5;exitY=1;exitDx=0;exitDy=0;entryX=0.5;entryY=0;entryDx=0;entryDy=0;startArrow=classic;startFill=1;" parent="1" source="27" target="29" edge="1">
                    <mxGeometry relative="1" as="geometry"/>
                </mxCell>
                <mxCell id="27" value="" style="shape=image;verticalLabelPosition=bottom;labelBackgroundColor=default;verticalAlign=top;aspect=fixed;imageAspect=0;image=data:image/png,iVBORw0KGgoAAAANSUhEUgAAAOEAAADhCAMAAAAJbSJIAAAAilBMVEX////wUDPwSSnvRiTwTS/4sqj5vLLvQhvyalT++Pfyb1r4uK7wSyn97Or+8vDwTC76y8T+9vXxVDf71c/yZ1DybFb2nY/82tTzc1/70Mn0hHP1jHz6zMX5w7vxWT7zemf95uLvPhf0gm/xXkT84d33pJf2mov3q5/1k4TvOQrzd2XxWD32pJr0iHiDZPiRAAAKe0lEQVR4nO1da3fqKhCVgNqoTeqrx+rV+urjtrf//+9dn1XiJMMAkwTX2R+7VpHtDMwGNtholIZ4+NwZCCE2P61leZ9aHuLmKIqU2COVg9m26v54x3YsU/ELFYm3qnvkGfNrfge0X+OqO+UT3Z4SWUSdx6q75Q9zeUtwR/GhX3XHfGHeBvgdKCZVd80PuhImuKd4F4naAsbgZSzeQRTn7XyC+ygGP6N2c8bgL8VR4InaTYsieEzUoCkWp+g5igEnagtJ0fNYDHa66fZMCAacqLCSASmOg4xinpKBEzVAAZevZGCKwSVqCy0TGYqhqZsngzKRjWJQRcOsTGQohqRucCUDUgynaJgoGTiKgSQqpUxkKIahbl4sI3igOA4hUfszUiXMUgwiilMXimGoGzeKISRqwylRgygasVsUgygafxO1mGIYifrzd0Ytpli7ujgE/uYUxbqpm7l8vv1jfEfqZreagCg6JmqNisZh677tnWJ9lsSnPRkJHc3fRdH43ZMBx6LTdFOPJfHVnoz/RK1D0dD2ZMDpximK1SdqZus+8p6oVaubmz0ZhqJRaaICW/fgWAxW3YAmBDBR3YpGZVHM2Ta8H3WTa0JY3Ym6Kdi6B6N4SFSVRpHFln8lRaPwdAlWN6so3XzNZpNNenaamlMsX90gp0vgjNp8OU0Z/eHbgrgzXnrRgOyUGsBEvULcGtEGZsmJamBCgIqGhuSZlqqlqhuj0yUsio3GyyprHK4LRUMTAjgWNSw3RIolJWqRnVIDHsU/A1qilqNuCCYEnOJ8RWFYjrrB7JQaQHWj4T2iUeRXN0QTAhrFRFB9N8wUySYEtGg8E/Uqs7qh+2SURCaH5YL6nXGqG1M75XV/frBGp9RGGRPV3E55gZxjrdIsfgeKXBv+Vj6ZAXpJbbkiN8qkbujf9Q4Kn90Ti2ZZ1A3VTnlE2kFnvv7IomEGdUO3Ux4ZvqItxx2SOD1T9K1ubOyUB4ZfTAx9qxs7O+We4RidE/obSyejz6Jha6fczTQbfKax3YTzqG7s7ZRC9P5grQ+rN2t2afJfh2xizT/bN+9pw39O3fnTkHaw9iu3M7ik6KETmKhJOg454kHdkBa8YB9m6Ge4UXRMVDslo0GiyjR5daHoVjQslYzeBfxpgWTiFEWHomGrZHTgu4o7XVNNolormWwX0IrR6H9Vkaj2SiaLdgv9sMSJot2M6lomNIrv6Mf13RLVoi46KZnbLmwge6aG2Gm6oasbNyVzizRao6XfqWhQ1Y3PFD2hrc83wMhxVDekouGsZABkNHgTmmCdKFKWxB6UzC0yDFur7u0Hl6VufCiZW2QZygii6DTdmC6J/SiZG9wwFFAUHdWN0XTjS8lkcctQSIBi/4vbrGmzdW8EgKHqQYnKrG4YysQJAMOcKLImqtXWvRlAhvBYZFQ3xiYEC8AMBZiobkWjIIp8KSpyGSqwaDCpGw4lc0EOQyH+BSjyqBuuMnFCLkMBRnGfqCqSUlq4NXOKhr8FL4x8hnDRmEg1+nlrNp/Xi97Nu5IIQHXDpGQuyGeYM6POf0vbttmhWeCgooHaKZ1RxBCsixpexo5mTTYlc0EhQ7Bo6CH9oI3HTBRZy8QJxQwVGsXGsG1v1mRUMhcUM4THog57s+acfQzugTEEi0YmilSz5mlG3fKPwT1QhqC60UE1a64P/xWPrZwCZKAMc9SNhhlN6rQ/9v/ULGMQCiOGeNFY0qKhBstdCEflhNCIIahuXIIoP3ej1+vedtGHGTAU6QZhuKXNGWrx6GIUoMGIoUTPcL5oKSfnjU4pE6kwZCjQA+M3ojH8vTHw0XsTGI1DfDvwiSa/VKfhp/sGMGGYrjGCjWRF+9hBvRgaGDfIdtSaMcRPUhOactsx3HjpvgGMGH4aMCR9qho1fkoq+BWNw3SaN2v7hxHDCXp69Ic2l+4+dUnNa1sYVYvvJcbwgxiRLVnpWcNM0zxhDNekUXVwYW/9EEBhxDCaIgSJl4iO39hbCZs0wlS1KUTU0NZ6pyVww+UcxBxmDKPiX0mKSbNGOjh9X07nIMYwYyiiwsOxD0pP1eDXpvT4UAJFU4ZFJXFLyVGlrqatfgkUDRnCT4adko2yH6F6mtEs4adoylD08syafcrZsFIZJ90j+1g0Zphn1iQdfqvBTWVlj6I5Q7H6BMTbnxGFYPQCfEWUFixAYCii73mGY/LZI41B8KoOc6JSGAolJ93LwUq8fN6QZtHBPxDBHUXWKJIY7n8GUkw/noaP22H3bdImHTyoXg7B3XfFORaJDHfoSdneQUbEje6i22Sc6obO0A5qAEwyV4k6ZqNYEkMlkAUYX9Eoh2FGyUBgE3ClMLxRMmCiMo3FMhgCSgYCU6KWwBBUMhB41A0/w8IyoYMlUdkZ5ioZkCJDFLkZqp7RGDyDQd0wMySk6BGJ99LPy1AJw0nmAu/qhpUhqmTAKPpNVNnTXxvqrjw2bqBkIPhUN2nvLXMRIn4X3k69VGpF0GfRiMZAF4a+vkFDJQNS9NQHuQZvsvRfvYxF1SNPMhf4KRoy93Te5Z3vM8hlQoePRI3yX1Lqux+ZkJQMSNE5imqzLGie/sZdpvXUegye4Tyjtgu74FgWHVP0CEd1g7329eBSM5SwLBM63NRNhGTRk0MQrZQMBBd1o76RxvsP1k4JpzKhw2FJXHBWdgLxFdprgh7G4Bn2RUOiA+UfSxuBg5IBKVpGUS2WWNOJHcOCrXs7WKobtjf3VOQxRY+w2/A3sHFZvZuIbN3bwUrdpJgDyI6hZkLwBxt1Y/B+aTwhM7Rc8OKwUDcGxu3kmzoOPSkZCPSiob7x19qoc6nnMpHpDTlR8XpINN/7VDIQyOoGd25/0lr0qmQgUBNVLZAGE9pDyc4LXgOKxChKJKfmpLWFdyUDgahu0nFxcyRFw6BkIBDVTfFlLdIVZBYlA4GmbgrF95Ly8xZMSgYCTd1E41xdk1D2MNiUjAeKeaZYNzslL2hFQ05B7UZ6uoxVyYC9I0VRQg9Dvmxc7ZS8oKmbVH4u9f9fTilvT7IrGQhEdSMXs+Hver8/nA1orvsSCj1AkaZuVLTa/Hx0u93Wfz+LNu1fy1AyEMh7N4dXkfYPIxGvnFeRokeUcxWlNCUDgdGseSHoa+veDvz3NEpVMhC4b9uUrGQg8Dr8S1cyEDgTtQIlA4HvKkqFZUIHV6JWpGQg8FxFIdopecFxFaU2KXqEf7OmhZ2SF77VTcVKBoLfolG5koHgU92otFZj8Ax/RaMWSgaCL7NmZQteHH6KRs3KhA4fiVrpgheHB7Omu52SF64zai3LhA43dcNoQvAHF3VTQyUDwV7dMJsQ/MF2SVzrMqHDrmjUVslAsFkS11jJQKCrm5JMCP5A3fCvuZKBQLQzlGdC8If+xNxIEoCSAWF8qSkIJQMhXptFMagyoSM2umAYjJIBYZCoASkZCPEao1ijrXs7YIkamJIBUUgxOCUDoShRA1QyEPITNUglAyKnLoaqZCCARaMGJgR/gNRNGq6SgRCvs79bFw3uKIIHfAyu3z5M5dri19BrjuX74mjZU6kUX3eVob94nL93BkKMpk30updH/A8xb7ymvsY7fwAAAABJRU5ErkJggg==;" parent="1" vertex="1">
                    <mxGeometry x="-200" y="337.5" width="70" height="70" as="geometry"/>
                </mxCell>
                <mxCell id="28" value="Source Code" style="text;html=1;strokeColor=none;fillColor=none;align=center;verticalAlign=middle;whiteSpace=wrap;rounded=0;" parent="1" vertex="1">
                    <mxGeometry x="-195" y="420" width="60" height="30" as="geometry"/>
                </mxCell>
                <mxCell id="32" style="edgeStyle=none;html=1;exitX=1;exitY=0.5;exitDx=0;exitDy=0;startArrow=classic;startFill=1;" parent="1" source="29" edge="1">
                    <mxGeometry relative="1" as="geometry">
                        <mxPoint x="40" y="530" as="targetPoint"/>
                    </mxGeometry>
                </mxCell>
                <mxCell id="29" value="" style="shape=image;verticalLabelPosition=bottom;labelBackgroundColor=default;verticalAlign=top;aspect=fixed;imageAspect=0;image=data:image/png,iVBORw0KGgoAAAANSUhEUgAAAOEAAADhCAMAAAAJbSJIAAAA0lBMVEXOLgDgNAD////t7e3XMQDgMADOKwD09PTKAADfJgDNJgDfLADNIwDLDQDt7+/eHwDeEwDv9fb99fP++vj64dz01dDMGgD0w7r87+zxsaXQNxLRPR3xraH1xr7yt6376ubskYHoc17mZEvjTivrinrpfWrhPRPiRyTkUzb3z8jvopT53tjunY/rycPoeWXtl4jna1Tq2tfceGfkWj7riHfYYk7hQBnr1NLbc2Ljlovdf3DVV0HTRy/fopngiHrjta3YZVLcin/TUDjclYrirqXSQyUDjIbWAAAS2UlEQVR4nM2daXfqOq+AQ9jJzkjCFCgt0AkobWlLp9ORTrv//y8dO0DIYMe24pRqrbvu+2GfOg+2ZUmWZEUtXRrDaWfvfH90eHI0GVcqlfHk6ORwtH++15kOG+UPr5T5x4fTveObsel7nmnatqZplaWg/2Xbpul5vjm+Od6bdsv8iLIIu53LG4Rm2hEWWRCriUAPLzvDkr6kDMLuYHSPpi0fLQWKJnQ8GpQxmbIJm9P9I9+zRegiStvzJ7f9puQvkkrY7ByYYnNHoDQvOlIhJRL2DzzPLkC3FgR50Jf3WbII27emFLw1pL3fkvRlcggHE18eXiia6d8MpHybBMLuuekV2XtUSM88l6BcCxO2Rp5ZAt5STG9UeLEWJGwdyF6eKbH9g4KMhQhbBxK1C5XRK8ZYgHBY9vxFjP5BAZMOTNjc/yG+JeM+2AqAEu7Y5ekXkpj2zo8Snk1KOR/yRPMmZz9HeOz/NF/I6B//EOFU+9kFuhFTm/4E4WgrE7gUzR+VTtgeb2sCl2KO2+USnm9xApei+eclEnZPvC3zYfFOhOxxEcKp/XNnfJ7YtojCESA83foKXYvmn5ZA2Dz8DSt0Ld4VtxXHS9idbFeHpsWc8IbLOQnPfskW3IhtcxpxfIT9HzdD2aJ5fAE5LsIdf9s4RPG53A0ewr3fCYgQ9+QQnv5WQITIcWqwCc9/LyBCZJtwTEK5gJqmMa7bBMVdFCWUuURtz6tMjiYVOdcbofxR3I9ihPK0qGb6F50utkSa3f6o2A1VJH8URXG/ihAOpAGalaTe25PhZ2JAhPgKJ5zKAtT844wduV/YkF8CKorRgRK2ZFkyZPNjWnClrgHRLOb5/TmEDVlaT7PJYfnhfZEBNoCKHuT4xDmER7I0nke5d6jPC/yGMUBFsXbpzhSd8EqWu+RTtsnfan0G3ugJQEVxnsUJT2U5vPYFDbBarR8Df8YUoKIEj6KE0tRoxSTvEQxYrVUroHWaAUQKleZLUQi7ck5kDHhLB0STeA6ZRAIg0jaUGzgKoTQtU/GJamYFWK3NAWuFBIi1jQjhpbSokzbJA0STeCi8WMiAaCuSjXAiobxNWDH3cwGr9VPRZUoDRAc/MYxKImzCtj9RPMJREQOs1maCy4UOqOgO6VQkEV5IDBx62YhYHBBtRDHCHEB0Kr7zEfYluoSan9FwCUCsakQWTC4gWqdvXISg1EkinunZo3TgNgmITsSRQDojAxAdGdl1miW8lbRGbW+8n7X5U4AIUVXbl2M+r58FiNbpNZuwLWWNIo9+RHJpMoDVv8tRRz57ItmAJH2aIZxIWKOaVzkNl8vZZdK1zwLWdsbnoTJq7o0Z7igPoKL3WIQ7xc96zZuEeZPD04lvmge5gNX6rWn6k73Qdu0c5TFyAaJzPx3TSBE2i6sZrxIegdOr5brzcgGrdXz2ojV9FRrOnXvqD8wJiBBTui1FuF9UzZheuCwHk7Xu2Bz5JMDowLdXE7+TzOWMfm9uQMV5yiMcFlQzq4jToLJZbtpJDmC1fhUpUc2z8Y/TuI0dkOaJJgqIlE0rh/CgmEuxTAWZJlPCVpNIBEzabJo3xv/27H49jf7l6icXAVSsOzphq9AUaj52BYeHKSNFs+mA9ZTm1vxDbAOtssrwvUu4ToUAkTPcphJeFZlCzcRH0Xk2J9O+ogBiRZr5x/4lXgaavboexKtKEFCxnmmEZ+ApRPaZP0Eav0VMuPH262TAc+K/PkL7qHHi+aHm2TOFAVPx0zghbApxydLR8QCvrkuKFe1d1muEJfpI/kW18OJztIy7tD1xwOQkxggBu9BGdCeX/dUJdEn9A96olkas1a6pZ5+3MROanjhgcifGCC8Ep1Dz7avTdsyYzzH4zPtZPQ5Zq8/uc45ecxz90U8dQGi9kwi7gvaadpKKMbXy/oDmHc5qdUSJBP2/2WGegRa/Bnh0IJMYOxM3hMJxPfMySbiX/wdsr3K9M/tv/t9s57qS6y3ZlZjbPAsghDHDZkMobnKn8gRuWKscl4tiMfONX/s+HkNuuBBCxYh2T0Q4ADgViYSWhqTgh32UNJ1fIBtRCXYyhEcQp8KPlZdBfiKCRHbsWhagjahH8eE1IfC09ze3BQVt2o3cnCZU2AC0ETen/poQGJ0xo8xyCZ7lSpC3qB1Po300NECEUcRmTQgDtI+in3oqM/1Usz3robPaj7sWbBKbCcIO6Ps0DX1EZbmmoDeBZPmj6FZgPL/iY2MYwHRNJ0EI20Q+8iYOTS1U7hJvAiJvwgrc70d0JILW6dpNXBI2QFOIrwZPPYTWKOpakgGx6C5CfILZNY0YIWiRauMVmD1piltEfIBIDLQLFMg6DQYxQtAi9dtrY9s+UW/kLdKUu6S/ANfpapmGhE3IBJjHm9CcXR7gMgkBtE6XcUUFrOm9ZmzzlQgYrlOQdbrUpiEhJEqK46ISZy4HMHTZXwGWzdLBCAkBdxVYzXTkZw+TQxZuH6RsdGVNCIkD4yio1CMwBzC8bnkDTGLoB2PCgfgi1e6Rxyu9TIgadAr+IeNNfBJDFwoTigZokHjorJGbsJ0HiEw4Vf0nPolhuAYTjoU/VatIuYfjBVxOoiU8ieFGRP83FP9U8xTyu8ABQ4cWEJNyhyEhwGTzG2pf8hSysixmakPcsAneQkLx09A+QD6F3GI2VmQbn4kPwo6iswgJxc9tb1r4plEQEBk2Q3UmbNhgm1YBhBGxnhFORysIqDhfkFPfwITis4Gz8aTqGZ7LF6xrxMNu7hkiFFcZXltS1o0AYPixbeFlGvQRofB600xVvSzN4aWKg5wo4YgN+o8UIYsG3xV6/oFUk5T3ftBCKuPBcN3AEcBEVo2innB/rO2Pjztn3S5yLG/vZXUY4p1Bt4d8oUa32+p/9Fzu/YiUqcI9HZo3iueKtm6l1NjxAVruUzwO3npyOY9GXW8qvGE27yadkj6U0IOAU8k8p7NUW8+cSsdtKJxhQGLFbeESaE5AUvndKx+ie6bwxWgolT0FjVNOQMrYXIhBX+Fyf31Kk8YChUvcgLTqwjqXERe8KYy76VC8S/Igf6v1Ao4+HyCtoAmNzROdch4VjrM7c2kZDZJIvSsF0KIUpYVj37E1qrNQjtlf6JN7bCxrsyBlPfyAYUyfPjbbY7QWyohJaB/SB8G5aaBJ5AS0HnLHvmZOovWgsOuOPGKxTVSb9R9kJ/KaauQK383YTGWjvyhMo00b5w2CfkhAjgMvYDYvPTX2N9NG3VWY32eTmsDFa7PE/QzuZDyHVI4WH/uDaaH2lAnrc0xCF5hEbdab6DLlzzYMCOdwcmzmgdFTxqzv8RiFL8IbUSCdkrANk2Pz5IQxPyhbfZaqzaqKnRcFktKzY8857BrmF2XKXDO1WUKEQgmxbtqnyIzNQchepWe5g1RrQqEssYzf9BxmxuaZQzbhNHcQsSpQwZTm1D4kjM2xD9m6lFWb9cZ/WojmbOMLmfyxOXQp+zy8yB2kWl9wm23CSemJCh/i2BznIdumqeQOUk1XhUgEXN1T08eusa9Nd4Xs0tzarBIA4wWT5LF57FK2b6Hd5AxSrfPGWyGAmxom8tjvPL4Fj384pQ9S+4/zrAABRtqUMjb7rED+IY+PP6EOUq1z3s0BAcP7MerYHLUYyMfnidPgJETKII98uxAKuOx2QRn7gy9Owxdr21HJg7zxrVE4IFqnA9rYnLE2znjpG6n8rM7pOBUBxI0SyGPzxks5Y97eaab8rMYbSiwGiGPehLH5Y97c9xaH88Q4tfqc896iKCCaiLvM2M+c+UNug//uyfau56vSLLRG6nPeu6figDjh+wmNjUv6wsKw+VMgcPckdH948zibz9FAfx9veO8PZQAq+P7w+esv+mnn89nXp+D9oegdsImrSCq8/5EkQGV5B3ztOIH4HbD4Pb7Nf48vD7DAPT4oF4OzTEoiILbfALkYHUQoXimB82m4mjrKBITl7oX5NICcqDFfxalMwCI5UaXltUkFLJTXBshNvFBVpucsFxA7iuDcxHLyS+UC4nR9eH4pMEc4X9dIBsR6BlByscoRBqRwMfO8JQOGYUVxPaPralm5+rIBca4+oOAivEEuUG9Bn0TZgOEU9gD1FgO1QM3MgJ5FKx2wcM0Mn4GSlJy6J+mAYd0TYAo3dU8qJJ2CWrsmHxDn1AAqZuK1a6D0NK9BXN7yAKNJQ+ZMA9J2IOhHhLAa0hHJiZII+Lmys+E1pM2IEHJexOuAywFUl4j6t6q2QXXAyzY8RWq57zNF6hL3YPCqNr+xIYrzvgCVeVHLgSUhaJmGofDEc4FSHV7c8atnhemzC1Dzj1XbiNUFHWiZhp1NzidRC1mpDi82uNSuHryDeyqsekUV64sRdpRv7d34nq1JdniX2VBD9H0N8cJDLKm+GCqsy/y6H3ljcKC5IjEwpsRyFD5hvU0CNUkIbE0Sa/Xc/lBc3kAtU3Qr6k/zBOvAE6UArAmBnTu8ROJZ6/VZEqG16XgM24U4BpUkFAh9x8VOv3wAaiCXlSDWmLsDQcSnaIoQ1shKO0rwNV4kLVMj3u9rAEAk9PoC9lHy4p/SBTY8ykgqf53zJi0uhH5twA4z8XeOhko+oO4ErmsYHNVnQSqn9VFU28RSb+F9E5cSay3YsnIBHfflcTZsqI3h7OuFcXuUzkkciralI/ZNVNmZNQSJkm2Qj5r3QzvuIv7Vw8cgh3GjJpBB2X59d1xBQHLvS+CBEevX/U7fLu5D+gWBxjX9XxurOplu/+PFRYeseDA/ljFatAftn5Xx0cEH7KtB+RYjkWO4kjfKzOgGfg1vOHj6FqsX3QitBy2ks+CfVZf3gRG84I5f38SV6s4IgMgKIl4HBi9oOXe/DSBdOB6tj7D4JP5ZxSR30Ill6fjvfhhZdUMpr1PrhPxXC3cvU6dOkWOH3gtaeBKxN4HdnK/wSNYNrKJbd+nFF1CeQ/1brf9L7UXdvcP6aEFb7XyS089bsKvZ6oHF4eP6O4Me/tv9XmL15VafJa6T9GAXn67tXZitHQ2YfG2mQF/9lT+ov2w+CE0jtiX+KTHGbEVBBFitzWP/baBgfdR4KjaBjL76Ip0EIoc38UHOSvPsrqutCe+iRICxNGbL/Q7dlH/8mSQUSVcSgd+3oPd06oWKpX9nhBPJqD4Lywl0x3gP1e1brtXAJTrjfQvu3kh5D0u5u6Hv033ddR2LVX32aTnu7ldo73R2RW0XggTpl6yB78zkx2TQlnoNbfv2Y+8pPUACsFr/6D0u35l57cH6lKaGZr4zw3diMINOemBcU58/TSTErt4KujZk8JE2Bei9J66omuP2HnP3YESIZrqwflkPyvHeE8ebXdwVoI7rXKct7kzl25MlL0qnB1kcwLtrInFR3WBVn80laJdISPah+Nt5gtVnKcJs9Vnh82EjDqnyW/j9Q9nVZzz1dZzC//5h3huWW6g+4xb+Nyxz3iEVvpuw4sqNVH3GrsbmFZF3SFX1hOxkAKrPnFxAnop6TrG+yShC7wGXUH3GUbrEJ9TXx0XedIZVn629NXL1GbuzBaeIvulMepe7jOozaWeF+Lvc2bfVwdVn31TAav1Z0hRC3lZPv1xdSvXZl6QptHZJJyGTsGFLSkJwqZVvktQMVcswCOMPOG2x+ozn75ObILEJNwq1cPXZF6H67EsWIFWNsgnVHcADi0QhVJ+9y1KjBqlhHS/hsquelOozd7GsfKsuq88WvJ0PmULsyMdPqJ760qrPgufX2bxWr81nr895d2ti4lIPQk5C9Rz0PB9RLHwH7OIOpLLmDwF+sACYhOpCngMnX5gzyEOofvxeRIMNyEOoSlPrsoWhRfkJ1VdYWlLZYhC6kAEJqRfS2xSdHLQAEqrtX4doBXmmmjihOuxJO8GkiLObY2yDCNXmp8TAZmEJnunuEpQQJyFsm2stusE850GEakfO9VBhsYJcZ6IAIdqMv2GlBrvpuxB5hNiE2/Y06i458CuLUJ1a29WpjsV3CsIJ1ebDFqdRdx+4dSiYECkcZ1vT6DgiKgZOqKpPW5lG3SVlPZRDqLal5E2I8QW71NSHEghxcfzPLlXHSefJlE2oNrhf0ZAglrvIZDyUTojzLAm5pKXwGXfk7L+yCdF2fP6BebTcZ9gGlEGIDIDPkhkt47MQX2FCNI/vsvKZCOK47wX5JBDil3sk5aSlRA+MRYH9J5EQWXI739IXq+N+7whbaCSRQoik/SCvvBJ7gMETZxiGKbII0UQOng0pkFbgvlPqFyAijxBJd3An1hIvI7oTBO9v4NOdJFIJkTT6Tz1IpRKmQ5OnXHek4qnyCbG0dt4VwZIlXJqoP/wTCk9wShmEWIZvixdcS8mcTR3fuRmfi7cy6LCURRjKWf/r4cVxXbQ5nSQr4sJtLF3XeXn46ks49ehSKmEozUar/3a6WDy89Horvl7v5WGxOH3rtxpSjrxc+R+PQ+NwJV+b6AAAAABJRU5ErkJggg==;" parent="1" vertex="1">
                    <mxGeometry x="-196.25" y="498.75" width="62.5" height="62.5" as="geometry"/>
                </mxCell>
                <mxCell id="30" value="Tekton Pipelines as Code (pac)" style="text;html=1;strokeColor=none;fillColor=none;align=center;verticalAlign=middle;whiteSpace=wrap;rounded=0;" parent="1" vertex="1">
                    <mxGeometry x="-250" y="570" width="205" height="30" as="geometry"/>
                </mxCell>
                <mxCell id="41" value="Text" style="text;html=1;strokeColor=none;fillColor=none;align=center;verticalAlign=middle;whiteSpace=wrap;rounded=0;" parent="1" vertex="1">
                    <mxGeometry x="50" y="570" width="60" height="30" as="geometry"/>
                </mxCell>
                <mxCell id="42" value="" style="shape=image;verticalLabelPosition=bottom;labelBackgroundColor=default;verticalAlign=top;aspect=fixed;imageAspect=0;image=data:image/svg+xml,PHN2ZyB4bWxucz0iaHR0cDovL3d3dy53My5vcmcvMjAwMC9zdmciIHJvbGU9ImltZyIgdmlld0JveD0iLTIuMTggLTguMTggMTE2MS4zNiAxNzI1LjM2Ij48dGl0bGU+QXJnbyBsb2dvPC90aXRsZT48c3R5bGU+c3ZnIHtlbmFibGUtYmFja2dyb3VuZDpuZXcgMCAwIDExNTEuOCAxNzEwLjF9PC9zdHlsZT48c3R5bGU+LnN0MHtmaWxsOiNmZWZlZmV9PC9zdHlsZT48cGF0aCBmaWxsPSJub25lIiBkPSJNNzQ0IDEzOTUuNGMtLjctNDQuMS0zNy03OS42LTgxLjYtNzkuOC00NS40LS4yLTgyLjcgMzYuNS04Mi41IDgxLjMuMSA0NC45IDM3LjQgODEuMyA4Mi45IDgxIDQ1LjEtLjIgODEuOS0zNy42IDgxLjItODIuNXpNMTc4LjkgMTMxNmMtNDQuNC0uMi04Mi43IDM2LjctODMuOSA4MC43LTEuMiA0NC4zIDM1LjMgODAuNiA4MS45IDgxLjIgNDYuMy42IDgwLjktMzIuNSA4MS40LTc4LjEuNi00Ni4yLTM0LjgtODMuNi03OS40LTgzLjh6bTc5OS43LS40Yy00NS41LjItODIuMyAzNy40LTgxLjUgODIuMy44IDQ0LjIgMzcuMSA3OS45IDgxLjYgODAgNDUuNS4yIDgyLjgtMzYuNCA4Mi44LTgxLjItLjEtNDQuOC0zNy40LTgxLjMtODIuOS04MS4xeiIvPjxwYXRoIGQ9Ik01MTQuMiA5NjdjLjEgMCAuMi4zLjIuOWwuMyAxMi41Yy42LTMuMiAxLjItNi40IDEuOS05LjctLjUtNi4xLTUuMy0zLTIuNC0zLjd6bTI2Mi40LTM0MmMtLjEuMS0uMy4xLS40LjIuMS4xLjMuMi40LjMtLjEtLjEgMC0uMyAwLS41ek02MTEuMyAyMDUuMnYuMWguM2MtLjEgMC0uMi0uMS0uMy0uMXoiIGNsYXNzPSJzdDAiLz48cGF0aCBkPSJNNjk4LjggMTI1Ni40Yy02My41LTE1LjctMTI4LjEgMTAuMy0xNjEuNSA2NC45LTMzIDUzLjktMjYuNiAxMjQuNSAxNS40IDE3MS4yIDQ0LjUgNDkuNSAxMTEuOCA2My4xIDE3Mi4yIDM0LjkgNS44LTIuNyAxMC43LTguNyAxOC4zLTYuMSAxLjYgMzEuMS0yLjUgNDguMi0xNS44IDY1LjYtMzYuMyA0Ny41LTEwMy4zIDQyLjYtMTM3LjQtMTAuMS0xMy40LTIwLjctMjguNy0yNi4zLTQ1LjgtMTYuOC0xOC4xIDEwLjEtMjEuNSAyNy45LTkgNDkuNiAxNy45IDMxLjIgNDQuMiA1Mi41IDc3LjcgNjUuMiA1LjkgMi4yIDUuMSAyLjIgMTQuMSA1LjYgMTAuMyA0IDQyIDUgNTYuNyAyLjMgOS0xLjYgMTIuNy0zLjYgMTguNy01LjMgNjEuMi0xOC4zIDEwNC4xLTcyLjIgMTA1LjYtMTM2LjEgMS4xLTQ5LjkgMS4zLTk5LjgtLjEtMTQ5LjctMS45LTY0LjItNDcuOC0xMjAuMS0xMDkuMS0xMzUuMnptLTExOSAxNDAuNWMtLjEtNDQuOCAzNy4xLTgxLjUgODIuNS04MS4zIDQ0LjUuMiA4MC45IDM1LjggODEuNiA3OS44LjcgNDQuOS0zNi4xIDgyLjMtODEuMiA4Mi42LTQ1LjUuMi04Mi43LTM2LjItODIuOS04MS4xem01MzguOS00My4xYy0yMi02OC04OS43LTExMS4yLTE1OS0xMDEtNzIuMSAxMC42LTEyNS4yIDcwLjItMTI2LjUgMTQxLjktMS4yIDcwLjMgNDkuNCAxMzEuMyAxMjAuMyAxNDQuOSA2OC43IDEzLjIgMTM5LTI3LjMgMTYzLjQtOTMuOCAyLjQtNi43IDguMi0yMC44IDguOS0zMS4xIDEtMTYgLjgtMzAuMy0xLjgtNDIuMy0yLTguNy0zLjQtMTIuNi01LjMtMTguNnpNOTc4LjYgMTQ3OGMtNDQuNS0uMi04MC44LTM1LjgtODEuNi04MC0uOC00NC45IDM2LTgyLjEgODEuNS04Mi4zIDQ1LjYtLjIgODIuOSAzNi4yIDgyLjkgODEuMSAwIDQ0LjgtMzcuMiA4MS4zLTgyLjggODEuMnoiLz48cGF0aCBmaWxsPSIjZmU3MzNlIiBkPSJNNzUxLjggMTA0OC4zYzEuMy0xNC41LjYtMjkuMiAyLjQtNDMuNiA0LTMxLjcuMi02NC4xIDguNS05NS40IDQuMS0xNi4yLTktMzUuMiA3LjgtNDkuNGwtNC4yLTEzLjhjLTQuNy03LjgtMi4zLTE1LjQuNS0yMy0uMy0yNy44IDAtNTUuNiA1LTgzLjEgMS41LTM4LjIgMy4xLTc2LjQgNC42LTExNC43LS4xLS4xLS4zLS4yLS40LS4zLTgxLjcgMzcuNS0xNTguNy0xNS0xNzEuOC03OC04LjYtNDEuNC00LTgwLjUgMjguMy0xMTIuMSA1LjQtNS4zIDEwLTExLjQgMTUtMTcuMiAxMy4yLTc5LjEgNC0xNTEuNy02My42LTIwOC4zIDEwLjEtNS44IDE5LjItMi41IDI3LjQtNHYtLjFjLTgyLjktMjAuOC0xODMuNSAzNS45LTIxNi44IDEyMi41LTEwIDI2LTE1LjQgNTIuOC0xMy43IDgwLjcgODIuMi0zOC4xIDE1NS45IDcuNCAxNzYuMiA3Ni43IDIxLjEgNzIuMS0zNS4xIDE0OC40LTEwOS44IDE0OS41LTIxLjguMy00Mi41LTMuMy02My4xLTkuNCAxLjUgMzkuOCAzLjEgNzkuNiA0LjYgMTE5LjQgMi45IDI2LjEgNiA1Mi4xIDQuNyA3OC40bC42IDE4LjZjLS4yIDQuMS0uNCA4LjItLjYgMTIuNCA2LjEgMjUgNy40IDUwLjcgOS4zIDc2LjMtLjItLjctLjMtMS4zLS40LTIgLjEuNy4zIDEuMy40IDIgMiA0My41IDMuMiA4Ny4xIDYuMyAxMzAuNiAxLjMgMTgtNS4yIDI3LTIxLjggMzEuNi0xOS42IDUuNS0zOC45IDEyLjEtNTguMyAxOC4zIDI2IDMuNiA1MS42IDQgNzcuMiAzLjQgMjcuNy0uNiA0MC4zLTEyLjkgNDMtNDAuNCAxLjctMTcuNSAzLjItMzUgNC44LTUyLjUgMS44LTMxLjcgMy42LTYzLjUgNS40LTk1LjJoMy45djkwLjVjLjUgMTMuNy43IDI3LjUgMS42IDQxLjIgNCA2My45IDUuOSA2My41LTU3LjggNzYuNC0xLjUuMy0yLjggMS4yLTQuMiAxLjggMy44IDIuNSA3LjYgNSAxMS40IDcuNiAxLjIuMyAyLjIuOCAyLjggMS45IDE1LjIuMSAzMC41IDEuNCA0NS41IDAgMjcuMy0yLjYgNDAuMi0xNy4yIDQyLjItNDQuMyAxLjItMTcuNCAzLTM0LjggNC41LTUyLjItMi40LTIzLjEgMS4xLTQ1LjggNS40LTY4LjVsLS4zLTEyLjVjMC0uNi0uMi0xLS4yLS45LTIuOS43IDEuOS0yLjQgMi40IDMuNy41LTIuNyAxLjEtNS40IDEuNi04LjF2MTA0LjhjLjMgMTIuMy43IDI0LjUuOSAzNi44LjUgNDQuNS0yLjMgNDguNS00NC43IDYxLjItMTEuNyAzLjUtMjMuOSA1LjYtMzUuNSA5LjUtOC40IDIuOS0xOS4xIDEuMy0yNyAxMS4yIDM0LjUtMS4zIDY2LjggMi42IDk4LjktMi42IDMzLjItNS40IDQ2LjQtMTguOCA1My4yLTUxLjIgNS0yMy44IDcuMS00OC4zIDE2LjItNzIuNCAxLjMgMi42IDIuMyAzLjggMi42IDUuMiA0LjYgMjIuNSA5LjIgNDUuMSAxMy42IDY3LjYgNi4yIDMxLjUgMTkgNDQuOSA1MSA1MC41IDMzLjEgNS43IDY2LjYgMS44IDEwMC45IDIuNi00LjktOC40LTEyLjYtNy0xOC44LTguOC0yMS4zLTYuMi00My0xMS41LTYzLjktMTguNy0xNS4yLTUuMy0yNi4xLTE1LTI1LjktMzMuNy41LTUxLjIuMi0xMDIuNC4yLTE1My42aDYuMmMyLjIgMzIuMSA0LjggNjQuMSA2LjUgOTYuMiAzLjkgNzQuMiAxMi43IDgyLjMgODcuMiA3OC4yIDQuMi03IDE0LjUtMS41IDE4LjQtOS0xNy45LS4xLTMzLjUtOC43LTQ5LjktMTQuMi05LjItMy4xLTE0LjQtMTEuNC0xNC4yLTIxLjYuOC01Mi42LTEuMi0xMDUuNCA1LjktMTU3LjggNC4zIDQ0IDcuNyA4OC4xIDExLjEgMTMyLjEgMS42IDIwLjYgMTAuOSAzNi43IDMyLjUgMzguMSAyOS4yIDIgNTguNS41IDg3LjguNS0xNS41LTcuOC0zMS40LTEyLjQtNDcuMi0xNy40LTM1LjgtMTEuNS0zNS42LTExLjYtMzIuMy00OHpNNTI2LjYgMjk4Yy0uMyAxNC43LTExLjcgMjYuMy0yNi42IDI2LjYtMTUuNy4zLTI3LjUtOC43LTI3LjgtMjkuMSAxLjctMTQuOCAxMC0yNC45IDI3LjYtMjUuMyAxOC43LS4zIDI3LjEgMTIuMyAyNi44IDI3Ljh6bTEyMC4yIDQzNy40Yy4xIDQwLjUtMzAuOSA3NS44LTY2LjMgNzUuNy0zMy40LS4xLTY3LjUtMzkuNS02Ni4zLTc2LjctMS44LTExLTMuNy0yMi4xLTYuMi0zNy41IDIzLjkgMTYuMyA0NCAzMyA3MC45IDMzLjYgMjcuNS41IDQ5LjEtMTMuNiA3MS42LTMwLjEgNC44IDEzLjItNy4zIDIzLjUtMy43IDM1eiIvPjxwYXRoIGZpbGw9IiNiNWQyZjMiIGQ9Ik0zOTMuNSA4MjNjLTItLjctMy45LTEuNi01LjgtMi4zLTI3LjQtMTEuMi01MS4xLTI4LjQtNzMuMS00Ny41LTc5LjQtNjguNi0xMzEuOC0xNTQuNS0xNDQuNS0yNTguNy0xNC40LTExOC40IDEyLjEtMjI3LjcgOTEuMS0zMjEuNiA3Mi4xLTg1LjYgMTY0LTEzNS41IDI3My43LTE0NyAxMjEuOS0xMi43IDIzMS40IDIxLjQgMzIzLjYgMTA1LjYgNzYuOSA3MC4yIDEyMS44IDE1Ny4yIDEzMy4zIDI1OS41IDkuOCA4Ny4xLTUuOSAxNzEuMy01MC43IDI0Ny44LTQwLjcgNjkuNS05NC45IDEyNS45LTE2OC4yIDE2MS42LTIgMS00IDItNiAyLjktMi44IDcuNi01LjMgMTUuMi0uNSAyMyAxLjctMS41IDMuMi0zLjQgNS4yLTQuNUM4ODIuMyA3ODMuMiA5NTkuMSA2OTYuMSA5OTUgNTc0LjljMy4xLTEwLjMgNy45LTE1LjQgMTkuNC0xNC4yIDE1LjYgMS42IDE5LjgtOC44IDE5LjgtMjEuOC4xLTQ5LjkuMS05OS43LjEtMTQ5LjYgMC0xMC43LTIuNi0yMi41LTEzLjctMjMuNy0yMC40LTIuNC0yMi45LTE3LjMtMjctMzEuOC0yNC04NC40LTcwLjItMTU0LjYtMTM4LjgtMjA4LjVDNzEzLjggMTQuNiA1NTktNS40IDM5Ni42IDY5LjQgMjc1LjkgMTI0LjkgMTk5IDIyMS4yIDE2NC4yIDM1MC4xYy0yLjIgOC0xLjIgMTcuNS0xNC44IDE0LjctMTkuNC00LTI2LjcgNy40LTI2LjggMjQuNi0uMyA0OS45LS4xIDk5LjctLjEgMTQ5LjYgMCAxNi42IDguNCAyNS40IDI0LjQgMjEuNSAxNC43LTMuNiAxOC4yIDMuNyAyMS4yIDE0LjkgMTMgNDcuOCAzNC43IDkxLjUgNjQuMSAxMzEuNCA0MyA1OC4zIDk1LjQgMTA1LjEgMTYyIDEzNC45LS4yLTYuMi0uNC0xMi41LS43LTE4Ljd6Ii8+PHBhdGggZD0iTTMxOC4yIDEzNjUuOGMtMTkuMS04NC40LTEwMS43LTEzMi0xODMuNS0xMDYuNC04Mi4yIDI1LjgtMTI0LjggMTE1LTkyLjQgMTkzLjcgMzEuMyA3Ni4yIDEyNi4xIDExMS4xIDIwMC44IDczLjggOC44LTQuNCAxNS40LTEwLjggMjMuOSAyLjQgNy41IDExLjYgMjAuNiAxNS40IDM0LjggOS43IDEzLjgtNS42IDE5LjgtMTYuMSAxOS43LTMwLjYtLjEtMjAuNyAwLTQxLjQgMC02Ny40LTEuMy0yMS42IDIuNy00OC43LTMuMy03NS4yek0xNzYuOSAxNDc4Yy00Ni42LS42LTgzLjItMzYuOS04MS45LTgxLjIgMS4yLTQ0IDM5LjYtODAuOSA4My45LTgwLjcgNDQuNi4yIDgwIDM3LjYgNzkuNCA4My44LS41IDQ1LjUtMzUuMSA3OC43LTgxLjQgNzguMXoiLz48cGF0aCBmaWxsPSIjMDEwMTAxIiBkPSJNNTI1LjYgMTI4MS4zYy0xLjYtMjAuOS0xOS4yLTMxLjYtNDYuNS0yOC42LTY1LjUgNy4zLTExNi41IDU0LjEtMTI5IDExOS00LjggMjUtMS4xIDUwLjUtMi4yIDcxLjUgMCAyMi42LS4xIDQxIDAgNTkuNC4yIDI1LjMgMTEuNCAzOS4zIDMxLjQgMzkuNSAyMCAuMyAzMi4yLTEzLjkgMzIuNS0zOC44LjMtMzUuMi0uMy03MC41LjItMTA1LjcuNi00NCAzMS4xLTc5IDc0LjYtODAuOCAyNS44LTEuMSA0MC4zLTE4LjIgMzktMzUuNXoiLz48cGF0aCBmaWxsPSIjZmU2ODRiIiBkPSJNMzkzLjYgODU0Yy0xNC44IDQxLjUtNTQuMiA0MC41LTg3LjcgNTAuOSAyNS4yIDYuNSA1MC44IDE0IDc2IDkuNyAxNS0yLjYgMTcuOSAyLjggMjAuMSAxMS43LjIuNy4zIDEuNC41IDIuMS4xLjYuMyAxLjMuNCAyLTEuOS0yNS43LTMuMi01MS4zLTkuMy03Ni40eiIvPjxwYXRoIGZpbGw9IiNmZTY0NDYiIGQ9Ik03NjIuNyA5MDkuNGMzMiAxNC41IDYyLjItLjEgOTMuMS00LjMtMzAuMi0xMi44LTY5LjMtNi4yLTg1LjItNDUuMS0xNi45IDE0LjItMy44IDMzLjItNy45IDQ5LjR6Ii8+PHBhdGggZmlsbD0iI2ZlZDZjOCIgZD0iTTUxOC4yIDk2Mi42Yy0uNSAyLjctMS4xIDUuNC0xLjYgOC4xLS42IDMuMi0xLjMgNi40LTEuOSA5LjctNC4zIDIyLjctNy44IDQ1LjQtNS40IDY4LjUgNy41IDMuOSAyIDE0LjIgOC45IDE4LjRWOTYyLjZ6Ii8+PHBhdGggZmlsbD0iI2ZlZWJlMyIgZD0iTTQ1OS41IDkyNmMtMS44IDMxLjctMy42IDYzLjUtNS40IDk1LjIgMy4xLTEuNiA2LjItMy4xIDkuMy00LjdWOTI2aC0zLjl6Ii8+PHBhdGggZmlsbD0iI2ZlOTE2NiIgZD0iTTM2NS41IDExNDUuNGg1MS42Yy0uOS0uNi0xLjktMS4yLTIuOC0xLjktMy44LTIuNS03LjYtNS0xMS40LTcuNi0xMS4zLS42LTIxLjkgMS45LTM3LjQgOS41eiIvPjxwYXRoIGZpbGw9IiNmZThmNjQiIGQ9Ik03MzkuNyAxMTQ1LjRoNTAuMmMtMTAuMi01LjktMjAuMi0xMC45LTMxLjgtOS0zLjkgNy42LTE0LjMgMi0xOC40IDl6Ii8+PHBhdGggZmlsbD0iI2UyZjVmYyIgZD0iTTc3MyA4MjAuM2M3My4zLTM1LjYgMTI3LjQtOTIgMTY4LjItMTYxLjYgNDQuOC03Ni41IDYwLjUtMTYwLjcgNTAuNy0yNDcuOC0xMS41LTEwMi40LTU2LjMtMTg5LjQtMTMzLjMtMjU5LjVDNzY2LjQgNjcuMyA2NTYuOSAzMy4xIDUzNSA0NS45Yy0xMDkuNiAxMS40LTIwMS42IDYxLjQtMjczLjcgMTQ3LTc5LjEgOTMuOS0xMDUuNSAyMDMuMi05MS4xIDMyMS42IDEyLjcgMTA0LjMgNjUuMSAxOTAuMSAxNDQuNSAyNTguNyAyMi4xIDE5LjEgNDUuOCAzNi40IDczLjEgNDcuNSAxLjkuOCAzLjggMS42IDUuOCAyLjMgMS4zLTI2LjMtMS44LTUyLjMtNC43LTc4LjQtMi0xLjQtNC0yLjgtNi00LjMtMjAuMy0xNC43LTM3LjctMzIuOC01NS4yLTUwLjYtNS4zLTUuNC0xMS45LTEwLTExLjktMTguOC0xMS44IDguNS0yMC4zIDIuNi0yNy4yLTYuOC0zOC40LTUyLjQtNjEuNi0xMTAuNS02NC43LTE3NS45LTIuOC01Ny44IDIuNC0xMTQgMjYuNy0xNjguMSAzMC45LTY4LjcgNzguNC0xMjEuMiAxNDIuMi0xNjAuMiAxMC44LTYuNiAxNy0uNyAyNC41IDQuMiA3LjMtLjcgMTMuOC0zLjIgMTguNS05LjJsLS45LTIuMWMtNi40LTEzLjUtNi43LTI4LjggOC43LTMyLjQgMTUuNS0zLjcgMjQuMyA4LjkgMjQuNCAyNS4yIDExNS43LTM4IDIyMy4zLTIyLjYgMzIwLjQgNTEuNSA3Mi42IDU1LjQgMTE0LjIgMTI5LjcgMTI2LjkgMjIwLjMgMTYuNCAxMTYuNS0yMyAyMTMuMS0xMDQuMiAyOTQuOC05LjYgOS42LTIwLjQgMTguMy0zMi42IDI0LjgtMi4xIDEuMS00LjIgMi4xLTYuMyAzLjEtNSAyNy41LTUuMyA1NS4zLTUgODMuMSAxLjgtLjkgMy43LTEuOSA1LjgtMi45eiIvPjxwYXRoIGZpbGw9IiNjZGVjZjYiIGQ9Ik04MTAuOSA3MTIuM0M4OTIgNjMwLjYgOTMxLjQgNTM0IDkxNS4xIDQxNy41Yy0xMi43LTkwLjctNTQuMy0xNjUtMTI2LjktMjIwLjMtOTcuMS03NC4xLTIwNC44LTg5LjQtMzIwLjQtNTEuNS0uMi4xLS40LjMtLjYuNC05LjEgNS44LTE2LjIgMTguMy0yOS4zIDEwLjUtLjgtLjUtMS41LS45LTIuMy0xLjUtNC43IDYtMTEuMSA4LjUtMTguNSA5LjItLjMgMS4yLS43IDIuMy0xLjEgMy41LTguMyAyMy4zLTMzLjIgMjkuNC00OS45IDQzLjQtNDUuMyAzNy45LTc4LjkgODMuMy05OC43IDEzOC4zLTMxLjggODguNi0yNS4zIDE3NS40IDE3LjMgMjU5LjIgNi45IDEzLjYgMTUuNCAyNi41IDI0LjUgMzguOCA1LjQgNy40IDcuMSAxNC44IDYuNCAyMy4zdi4zYzAgOC43IDYuNiAxMy40IDExLjkgMTguOCAxNy42IDE3LjggMzQuOSAzNS45IDU1LjIgNTAuNiAyIDEuNCA0IDIuOSA2IDQuMy0xLjUtMzkuOC0zLjEtNzkuNi00LjYtMTE5LjQtLjEgMC0uMS0uMS0uMi0uMS0zNC42LTIyLjctNjAtNTEuNy02NC40LTk0LjktNS41LTUzLjMgMTYuOS05Mi43IDYwLjUtMTIxLjQuMi0uMS40LS4zLjYtLjQtMS43LTI4IDMuNy01NC44IDEzLjctODAuNyAzMy4zLTg2LjUgMTMzLjktMTQzLjMgMjE2LjgtMTIyLjUuMSAwIC4yIDAgLjMuMSA1NSA4LjkgMTAwLjIgMzQgMTMyLjYgODAuMSAyNS45IDM2LjkgMzkuMyA3Ny42IDM2LjUgMTIzIDMxLjIgMjMuNyA1Ni40IDUxLjUgNjAuNSA5Mi42IDUuNSA1NS4zLTE4LjEgOTUuNy02NC42IDEyMy45di41Yy0xLjUgMzguMi0zLjEgNzYuNC00LjYgMTE0LjcgMi4yLTEgNC4zLTIgNi4zLTMuMSAxMi40LTYuNSAyMy4yLTE1LjIgMzIuOC0yNC45eiIvPjxwYXRoIGZpbGw9IiNmZTZiM2MiIGQ9Ik02NzYuMiA0MDQuMWMzNC4zLTE2LjkgNjcuNi03LjggMTAwLjcgMy4xIDEuMi40IDIuNS44IDMuNyAxLjIgMi44LTQ1LjUtMTAuNi04Ni4yLTM2LjUtMTIzLTMyLjQtNDYuMS03Ny42LTcxLjItMTMyLjYtODAuMWgtLjNjLTguMiAxLjYtMTcuMy0xLjgtMjcuNCA0IDY3LjYgNTYuNiA3Ni45IDEyOS4yIDYzLjYgMjA4LjMgMi4xLTEgNC4xLTEuOSA2LjItMi45IDcuNy0zLjUgMTUuMi02LjkgMjIuNi0xMC42eiIvPjxwYXRoIGZpbGw9IiNmZTYxNDIiIGQ9Ik04NDEuMiA1MDEuMWMtNC4xLTQxLjEtMjkuMy02OC45LTYwLjUtOTIuNi0xLjItLjQtMi41LS44LTMuNy0xLjItMzMuMi0xMC45LTY2LjQtMjAtMTAwLjctMy4xLTcuNCAzLjctMTUgNy4yLTIyLjUgMTAuNy0yLjEgMS00LjEgMS45LTYuMiAyLjktNSA1LjctOS42IDExLjktMTUgMTcuMi0zMi40IDMxLjYtMzYuOSA3MC43LTI4LjMgMTEyLjEgMTMuMSA2My4xIDkwLjEgMTE1LjYgMTcxLjkgNzguMi4xLS4xLjMtLjEuNC0uMiA0Ni41LTI4LjMgNzAuMi02OC44IDY0LjYtMTI0ek03MTguOSA2MTEuNmMtNTMuMS0uNC05NC41LTQyLjYtOTQtOTUuOS41LTUyLjUgNDMuNC05NC4xIDk2LjMtOTMuNyA1My4yLjQgOTMuOSA0Mi4zIDkzLjUgOTYuMS0uNCA1My40LTQyIDk0LTk1LjggOTMuNXoiLz48cGF0aCBmaWxsPSIjZmU2MTQzIiBkPSJNMzgwLjEgNDA4LjhjLTQzLjYgMjguNy02NiA2OC4xLTYwLjUgMTIxLjQgNC40IDQzLjIgMjkuOCA3Mi4yIDY0LjQgOTQuOS4xIDAgLjEuMS4yLjEgMjAuNiA2LjEgNDEuMiA5LjcgNjMuMSA5LjQgNzQuNi0xLjEgMTMwLjktNzcuMyAxMDkuOC0xNDkuNS0yMC4zLTY5LjMtOTQuMS0xMTQuOC0xNzYuMi03Ni43LS40LjEtLjYuMy0uOC40em01OS42IDIwMi44Yy01NC41LjItOTYuNy00MS42LTk2LjUtOTUuOC4xLTUzLjIgNDEuNi05NC40IDk1LjEtOTQuNyA1NC4xLS4zIDk3LjMgNDIuMyA5Ny4xIDk1LjUtLjIgNTIuMy00My4xIDk0LjgtOTUuNyA5NXoiLz48cGF0aCBmaWxsPSIjMDcwOTA5IiBkPSJNNTI2LjggNzQzLjJjLTMuNy0zLjctNi40LTguNy0xMi42LTguOC0xLjIgMzcuMiAzMi44IDc2LjYgNjYuMyA3Ni43IDM1LjUuMSA2Ni40LTM1LjIgNjYuMy03NS43LTEzLjQgNi45LTIxLjkgMjEuMS0zNy4zIDI1LjMtMzAuNyA4LjQtNTguOSA2LjMtODIuNy0xNy41eiIvPjxwYXRoIGZpbGw9IiNmZGZjZmIiIGQ9Ik02NTAuNSA3MDAuNGMtMjIuNSAxNi41LTQ0IDMwLjYtNzEuNiAzMC4xLTI3LS41LTQ3LTE3LjMtNzAuOS0zMy42IDIuNiAxNS40IDQuNCAyNi40IDYuMiAzNy41IDYuMi4yIDguOSA1LjEgMTIuNiA4LjggMjMuNyAyMy44IDUyIDI1LjkgODIuNyAxNy41IDE1LjQtNC4yIDIzLjktMTguMyAzNy4zLTI1LjMtMy42LTExLjUgOC41LTIxLjggMy43LTM1eiIvPjxwYXRoIGZpbGw9IiNmZWE3NzciIGQ9Ik00OTkuOCAyNzAuM2MtMTcuNy4zLTI2IDEwLjQtMjcuNiAyNS4zLjMgMjAuNCAxMi4xIDI5LjMgMjcuOCAyOS4xIDE0LjktLjMgMjYuMy0xMS45IDI2LjYtMjYuNi4zLTE1LjYtOC4xLTI4LjItMjYuOC0yNy44eiIvPjxwYXRoIGZpbGw9IiNmZGZlZmUiIGQ9Ik0zMTUuNiA2NzAuN2MuNy04LjUtMS0xNS45LTYuNC0yMy4zLTktMTIuMy0xNy42LTI1LjItMjQuNS0zOC44LTQyLjYtODMuOC00OS4yLTE3MC42LTE3LjMtMjU5LjIgMTkuOC01NSA1My40LTEwMC40IDk4LjctMTM4LjMgMTYuNy0xNCA0MS42LTIwIDQ5LjktNDMuNC40LTEuMS44LTIuMyAxLjEtMy41LTcuNS00LjktMTMuNy0xMC44LTI0LjUtNC4yLTYzLjggMzktMTExLjMgOTEuNS0xNDIuMiAxNjAuMi0yNC4zIDU0LjEtMjkuNSAxMTAuMy0yNi43IDE2OC4xIDMuMiA2NS4zIDI2LjMgMTIzLjUgNjQuNyAxNzUuOSA2LjkgOS40IDE1LjUgMTUuMyAyNy4yIDYuOHYtLjN6Ii8+PHBhdGggZmlsbD0iI2ZiZmRmZSIgZD0iTTQ2Ny4xIDE0Ni4xYy4yLS4xLjQtLjMuNi0uNC0uMi0xNi4zLTguOS0yOC45LTI0LjQtMjUuMi0xNS40IDMuNy0xNS4xIDE5LTguNyAzMi40bC45IDIuMWMuOC42IDEuNiAxLjEgMi4zIDEuNSAxMy4xIDcuOSAyMC4yLTQuNyAyOS4zLTEwLjR6Ii8+PHBhdGggZD0iTTgxNC43IDUxOC4yYy40LTUzLjctNDAuMy05NS42LTkzLjUtOTYuMS01My0uNC05NS44IDQxLjItOTYuMyA5My43LS41IDUzLjIgNDAuOSA5NS40IDk0IDk1LjkgNTMuOC40IDk1LjQtNDAuMiA5NS44LTkzLjV6bS05MS4xIDEwLjRjLTE4IC4zLTI4LjUtOS45LTMwLjEtMjcuNi0xLjUtMTYuNSAxMy4zLTMxLjkgMjkuNy0zMC44IDE3LjYgMS4zIDI3LjUgMTEuNiAyOS42IDMwLTIuNCAxNi40LTEwLjggMjguMS0yOS4yIDI4LjR6TTQzOC4zIDQyMS4yYy01My41LjMtOTQuOSA0MS41LTk1LjEgOTQuNy0uMSA1NC4yIDQyIDk2IDk2LjUgOTUuOCA1Mi42LS4yIDk1LjUtNDIuNyA5NS43LTk0LjkuMS01My4zLTQzLjEtOTUuOS05Ny4xLTk1LjZ6bS4xIDEwNy40Yy0xNy44LjItMjguNS0xMC0yOS45LTI3LjktMS4zLTE2LjUgMTMuNi0zMS44IDMwLjEtMzAuNCAxNy40IDEuNSAyNy42IDExLjYgMjkuMiAzMC0yLjIgMTYuOS0xMS40IDI4LjEtMjkuNCAyOC4zeiIgY2xhc3M9InN0MCIvPjxwYXRoIGZpbGw9IiMwOTBiMGIiIGQ9Ik03MjMuMiA0NzAuMmMtMTYuNC0xLjItMzEuMiAxNC4yLTI5LjcgMzAuOCAxLjYgMTcuOCAxMi4xIDI3LjkgMzAuMSAyNy42IDE4LjMtLjMgMjYuOC0xMiAyOS4yLTI4LjQtMi4xLTE4LjQtMTItMjguNy0yOS42LTMweiIvPjxwYXRoIGZpbGw9IiMwOTBjMGMiIGQ9Ik00MzguNiA0NzAuM2MtMTYuNS0xLjQtMzEuNCAxMy45LTMwLjEgMzAuNCAxLjQgMTcuOSAxMi4xIDI4LjEgMjkuOSAyNy45IDE4LS4yIDI3LjItMTEuNCAyOS40LTI4LjMtMS43LTE4LjUtMTEuOS0yOC42LTI5LjItMzB6Ii8+PC9zdmc+;" parent="1" vertex="1">
                    <mxGeometry x="267.5" y="324.54" width="64.75" height="95.93" as="geometry"/>
                </mxCell>
                <mxCell id="43" value="tag=master" style="text;html=1;strokeColor=none;fillColor=none;align=center;verticalAlign=middle;whiteSpace=wrap;rounded=0;" vertex="1" parent="1">
                    <mxGeometry x="584.06" y="247.5" width="60" height="30" as="geometry"/>
                </mxCell>
                <mxCell id="44" value="tag=1.x-candidate" style="text;html=1;strokeColor=none;fillColor=none;align=center;verticalAlign=middle;whiteSpace=wrap;rounded=0;" vertex="1" parent="1">
                    <mxGeometry x="560" y="383.5" width="100" height="30" as="geometry"/>
                </mxCell>
                <mxCell id="45" value="tag=1.x" style="text;html=1;strokeColor=none;fillColor=none;align=center;verticalAlign=middle;whiteSpace=wrap;rounded=0;" vertex="1" parent="1">
                    <mxGeometry x="580" y="536" width="60" height="30" as="geometry"/>
                </mxCell>
            </root>
        </mxGraphModel>
    </diagram>
</mxfile>